<svg width="376" height="376" viewBox="0 0 376 376" fill="none" xmlns="http://www.w3.org/2000/svg">
<path d="M257.749 59H119.251C116.041 59 113.057 60.7181 111.453 63.5066L42.2034 183.493C40.5989 186.282 40.5989 189.718 42.2034 192.507L111.453 312.493C113.057 315.282 116.041 317 119.251 317H257.749C260.959 317 263.943 315.282 265.547 312.493L334.797 192.507C336.401 189.718 336.401 186.282 334.797 183.493L265.547 63.5066C263.943 60.7181 260.959 59 257.749 59Z" fill="url(#paint0_linear_35228_45830)"/>
<path d="M46.1417 40.7807C48.3358 40.7807 50.1144 39.002 50.1144 36.8079C50.1144 34.6139 48.3358 32.8352 46.1417 32.8352C43.9476 32.8352 42.1689 34.6139 42.1689 36.8079C42.1689 39.002 43.9476 40.7807 46.1417 40.7807Z" fill="#008BC9"/>
<path d="M298.019 335.219C299.854 335.219 301.341 333.732 301.341 331.897C301.341 330.063 299.854 328.576 298.019 328.576C296.185 328.576 294.698 330.063 294.698 331.897C294.698 333.732 296.185 335.219 298.019 335.219Z" fill="#008BC9"/>
<path d="M236.117 355.343C237.933 355.343 239.405 353.87 239.405 352.054C239.405 350.238 237.933 348.765 236.117 348.765C234.3 348.765 232.828 350.238 232.828 352.054C232.828 353.87 234.3 355.343 236.117 355.343Z" fill="#008BC9"/>
<path d="M337.812 341.113C340.006 341.113 341.784 339.334 341.784 337.14C341.784 334.946 340.006 333.167 337.812 333.167C335.618 333.167 333.839 334.946 333.839 337.14C333.839 339.334 335.618 341.113 337.812 341.113Z" fill="#008BC9"/>
<path d="M341.785 252.834C343.979 252.834 345.757 251.055 345.757 248.861C345.757 246.667 343.979 244.888 341.785 244.888C339.591 244.888 337.812 246.667 337.812 248.861C337.812 251.055 339.591 252.834 341.785 252.834Z" fill="#008BC9"/>
<path d="M19.9727 248.861C22.1668 248.861 23.9455 247.082 23.9455 244.888C23.9455 242.694 22.1668 240.916 19.9727 240.916C17.7787 240.916 16 242.694 16 244.888C16 247.082 17.7787 248.861 19.9727 248.861Z" fill="#008BC9"/>
<path d="M67.1773 360C69.3714 360 71.1501 358.221 71.1501 356.027C71.1501 353.833 69.3714 352.055 67.1773 352.055C64.9832 352.055 63.2046 353.833 63.2046 356.027C63.2046 358.221 64.9832 360 67.1773 360Z" fill="#008BC9"/>
<path d="M313.226 69.2087C315.42 69.2087 317.199 67.43 317.199 65.2359C317.199 63.0418 315.42 61.2632 313.226 61.2632C311.032 61.2632 309.253 63.0418 309.253 65.2359C309.253 67.43 311.032 69.2087 313.226 69.2087Z" fill="#008BC9"/>
<path d="M353.487 96.334C357.084 96.334 360 93.4181 360 89.8213C360 86.2244 357.084 83.3086 353.487 83.3086C349.89 83.3086 346.975 86.2244 346.975 89.8213C346.975 93.4181 349.89 96.334 353.487 96.334Z" fill="#008BC9"/>
<path d="M91.7955 23.9455C93.9896 23.9455 95.7682 22.1668 95.7682 19.9727C95.7682 17.7787 93.9896 16 91.7955 16C89.6014 16 87.8228 17.7787 87.8228 19.9727C87.8228 22.1668 89.6014 23.9455 91.7955 23.9455Z" fill="#008BC9"/>
<path d="M337.812 33.1935C340.006 33.1935 341.784 31.4149 341.784 29.2208C341.784 27.0267 340.006 25.248 337.812 25.248C335.618 25.248 333.839 27.0267 333.839 29.2208C333.839 31.4149 335.618 33.1935 337.812 33.1935Z" fill="#008BC9"/>
<path d="M67.1775 71.6834C70.7384 71.6834 73.6251 68.7968 73.6251 65.2359C73.6251 61.675 70.7384 58.7883 67.1775 58.7883C63.6167 58.7883 60.73 61.675 60.73 65.2359C60.73 68.7968 63.6167 71.6834 67.1775 71.6834Z" fill="#008BC9"/>
<path d="M46.1414 343.588C49.7023 343.588 52.589 340.701 52.589 337.14C52.589 333.579 49.7023 330.693 46.1414 330.693C42.5805 330.693 39.6938 333.579 39.6938 337.14C39.6938 340.701 42.5805 343.588 46.1414 343.588Z" fill="#008BC9"/>
<path d="M145.433 90.0002C148.358 90.0002 150.752 92.3935 150.752 95.3186V146.433C150.752 149.358 148.412 151.752 145.433 151.752H94.3188C91.3937 151.752 89.0005 149.358 89.0005 146.433V95.3186C89.0008 92.3936 91.3939 90.0005 94.3188 90.0002H145.433Z" fill="url(#paint1_linear_35228_45830)"/>
<path d="M145.433 90.0002C148.358 90.0002 150.752 92.3935 150.752 95.3186V146.433C150.752 149.358 148.412 151.752 145.433 151.752H94.3188C91.3937 151.752 89.0005 149.358 89.0005 146.433V95.3186C89.0008 92.3936 91.3939 90.0005 94.3188 90.0002H145.433Z" stroke="white"/>
<path d="M213.141 90C216.066 90 218.46 92.3932 218.46 95.3184V146.433C218.46 149.358 216.066 151.752 213.141 151.752H162.027C159.102 151.752 156.708 149.358 156.708 146.433V95.3184C156.709 92.3934 159.102 90.0003 162.027 90H213.141Z" fill="url(#paint2_linear_35228_45830)"/>
<path d="M213.141 90C216.066 90 218.46 92.3932 218.46 95.3184V146.433C218.46 149.358 216.066 151.752 213.141 151.752H162.027C159.102 151.752 156.708 149.358 156.708 146.433V95.3184C156.709 92.3934 159.102 90.0003 162.027 90H213.141Z" stroke="white"/>
<path d="M280.797 90C283.722 90 286.116 92.3932 286.116 95.3184V146.433C286.116 149.358 283.722 151.752 280.797 151.752H229.683C226.757 151.752 224.364 149.358 224.364 146.433V95.3184C224.365 92.3934 226.758 90.0003 229.683 90H280.797Z" fill="url(#paint3_linear_35228_45830)"/>
<path d="M280.797 90C283.722 90 286.116 92.3932 286.116 95.3184V146.433C286.116 149.358 283.722 151.752 280.797 151.752H229.683C226.757 151.752 224.364 149.358 224.364 146.433V95.3184C224.365 92.3934 226.758 90.0003 229.683 90H280.797Z" stroke="white"/>
<path d="M145.433 157.176C148.358 157.176 150.752 159.569 150.752 162.494V213.609C150.752 216.534 148.411 218.928 145.433 218.928H94.3184C91.3932 218.928 89 216.534 89 213.609V162.494C89.0003 159.569 91.3934 157.176 94.3184 157.176H145.433Z" fill="url(#paint4_linear_35228_45830)"/>
<path d="M145.433 157.176C148.358 157.176 150.752 159.569 150.752 162.494V213.609C150.752 216.534 148.411 218.928 145.433 218.928H94.3184C91.3932 218.928 89 216.534 89 213.609V162.494C89.0003 159.569 91.3934 157.176 94.3184 157.176H145.433Z" stroke="white"/>
<path d="M213.141 157.176C216.066 157.176 218.46 159.569 218.46 162.494V213.609C218.46 216.534 216.066 218.928 213.141 218.928H162.027C159.102 218.928 156.708 216.534 156.708 213.609V162.494C156.709 159.569 159.102 157.176 162.027 157.176H213.141Z" fill="url(#paint5_linear_35228_45830)"/>
<path d="M213.141 157.176C216.066 157.176 218.46 159.569 218.46 162.494V213.609C218.46 216.534 216.066 218.928 213.141 218.928H162.027C159.102 218.928 156.708 216.534 156.708 213.609V162.494C156.709 159.569 159.102 157.176 162.027 157.176H213.141Z" stroke="white"/>
<path d="M280.797 157.176C283.722 157.176 286.116 159.569 286.116 162.494V213.609C286.116 216.534 283.722 218.928 280.797 218.928H229.683C226.757 218.928 224.364 216.534 224.364 213.609V162.494C224.365 159.569 226.758 157.176 229.683 157.176H280.797Z" fill="url(#paint6_linear_35228_45830)"/>
<path d="M280.797 157.176C283.722 157.176 286.116 159.569 286.116 162.494V213.609C286.116 216.534 283.722 218.928 280.797 218.928H229.683C226.757 218.928 224.364 216.534 224.364 213.609V162.494C224.365 159.569 226.758 157.176 229.683 157.176H280.797Z" stroke="white"/>
<path d="M213.141 224.355C216.066 224.355 218.46 226.748 218.46 229.673V280.788C218.46 283.713 216.066 286.107 213.141 286.107H162.027C159.102 286.107 156.708 283.713 156.708 280.788V229.673C156.709 226.748 159.102 224.355 162.027 224.355H213.141Z" fill="url(#paint7_linear_35228_45830)"/>
<path d="M213.141 224.355C216.066 224.355 218.46 226.748 218.46 229.673V280.788C218.46 283.713 216.066 286.107 213.141 286.107H162.027C159.102 286.107 156.708 283.713 156.708 280.788V229.673C156.709 226.748 159.102 224.355 162.027 224.355H213.141Z" stroke="white"/>
<path d="M280.797 224.355C283.722 224.355 286.116 226.748 286.116 229.673V280.788C286.116 283.713 283.722 286.107 280.797 286.107H229.683C226.757 286.107 224.364 283.713 224.364 280.788V229.673C224.365 226.748 226.758 224.355 229.683 224.355H280.797Z" fill="url(#paint8_linear_35228_45830)"/>
<path d="M280.797 224.355C283.722 224.355 286.116 226.748 286.116 229.673V280.788C286.116 283.713 283.722 286.107 280.797 286.107H229.683C226.757 286.107 224.364 283.713 224.364 280.788V229.673C224.365 226.748 226.758 224.355 229.683 224.355H280.797Z" stroke="white"/>
<path d="M145.433 224.355C148.358 224.355 150.752 226.748 150.752 229.673V280.788C150.752 283.713 148.411 286.107 145.433 286.107H94.3184C91.3932 286.107 89 283.713 89 280.788V229.673C89.0003 226.748 91.3934 224.355 94.3184 224.355H145.433Z" fill="url(#paint9_linear_35228_45830)"/>
<path d="M145.433 224.355C148.358 224.355 150.752 226.748 150.752 229.673V280.788C150.752 283.713 148.411 286.107 145.433 286.107H94.3184C91.3932 286.107 89 283.713 89 280.788V229.673C89.0003 226.748 91.3934 224.355 94.3184 224.355H145.433Z" stroke="white"/>
<path d="M301.737 239.563C301.737 250.555 297.453 260.896 289.682 268.667C281.911 276.438 271.57 280.722 260.578 280.722C249.587 280.722 239.245 276.438 231.475 268.667C223.704 260.896 219.419 250.555 219.419 239.563C219.419 228.572 223.704 218.23 231.475 210.459C239.511 202.423 250.03 198.434 260.578 198.434C271.127 198.434 281.645 202.452 289.682 210.459C297.453 218.26 301.737 228.572 301.737 239.563Z" fill="white"/>
<path d="M273.224 217.61C276.238 220.358 277.745 224.11 277.745 228.867C277.745 233.831 276.179 237.554 273.047 240.036C270.329 242.193 266.872 243.434 262.647 243.729C261.465 243.818 260.519 244.763 260.46 245.945L260.401 247.364C260.342 248.605 259.308 249.58 258.067 249.58H255.289C254.019 249.58 252.985 248.575 252.955 247.304L252.748 240.45C252.719 239.12 253.782 238.027 255.083 238.027C259.84 238.027 263.474 237.406 266.015 236.106C268.526 234.836 269.797 232.413 269.797 228.808C269.797 226.208 269.058 224.169 267.551 222.692C266.045 221.214 263.976 220.476 261.347 220.476C258.687 220.476 256.619 221.185 255.083 222.603C253.96 223.637 253.251 224.996 252.955 226.651C252.748 227.774 251.773 228.572 250.651 228.572H247.459C246.041 228.572 244.918 227.301 245.125 225.883C245.421 224.021 246.012 222.278 246.898 220.712C248.228 218.408 250.119 216.635 252.601 215.335C255.083 214.064 257.949 213.414 261.228 213.414C266.192 213.503 270.211 214.862 273.224 217.61ZM252.66 264.324C251.626 263.289 251.123 262.019 251.123 260.512C251.123 259.005 251.626 257.705 252.66 256.7C253.694 255.666 254.964 255.164 256.471 255.164C257.949 255.164 259.19 255.666 260.224 256.7C261.258 257.735 261.76 259.005 261.76 260.512C261.76 262.019 261.258 263.319 260.224 264.324C259.19 265.358 257.949 265.86 256.471 265.86C254.964 265.86 253.694 265.358 252.66 264.324Z" fill="url(#paint10_linear_35228_45830)"/>
<path d="M339.794 308.024L316.363 284.593C314.649 282.85 312.285 282.14 310.04 282.406L303.096 275.463C311.576 265.446 316.215 252.859 316.215 239.593C316.215 224.731 310.424 210.784 299.935 200.266C278.247 178.578 242.968 178.578 221.28 200.266C210.762 210.784 205 224.731 205 239.593C205 254.455 210.791 268.431 221.28 278.92C232.124 289.764 246.366 295.171 260.607 295.171C273.372 295.171 286.166 290.798 296.478 282.081L303.421 289.025C303.155 291.27 303.864 293.634 305.608 295.348L329.038 318.779C332.023 321.763 336.839 321.763 339.823 318.779C341.3 317.301 342.069 315.351 342.069 313.401C342.069 311.451 341.3 309.501 339.794 308.024ZM289.682 268.667C281.911 276.438 271.569 280.722 260.578 280.722C249.586 280.722 239.245 276.438 231.474 268.667C223.703 260.896 219.419 250.555 219.419 239.563C219.419 228.572 223.703 218.23 231.474 210.459C239.511 202.423 250.03 198.434 260.578 198.434C271.126 198.434 281.645 202.452 289.682 210.459C297.453 218.23 301.737 228.572 301.737 239.563C301.737 250.555 297.453 260.896 289.682 268.667Z" fill="url(#paint11_linear_35228_45830)"/>
<defs>
<linearGradient id="paint0_linear_35228_45830" x1="339.138" y1="320.198" x2="36.2115" y2="64.6769" gradientUnits="userSpaceOnUse">
<stop stop-color="#0281CE" stop-opacity="0.5"/>
<stop offset="1" stop-color="#C9EAFF" stop-opacity="0.5"/>
</linearGradient>
<linearGradient id="paint1_linear_35228_45830" x1="150.752" y1="120.876" x2="89.0005" y2="120.876" gradientUnits="userSpaceOnUse">
<stop stop-color="#0281CE"/>
<stop offset="1" stop-color="#0771C7"/>
</linearGradient>
<linearGradient id="paint2_linear_35228_45830" x1="218.46" y1="120.876" x2="156.708" y2="120.876" gradientUnits="userSpaceOnUse">
<stop stop-color="#0281CE"/>
<stop offset="1" stop-color="#0771C7"/>
</linearGradient>
<linearGradient id="paint3_linear_35228_45830" x1="255.239" y1="85.9235" x2="255.239" y2="181.747" gradientUnits="userSpaceOnUse">
<stop stop-color="#B8C5E7"/>
<stop offset="1" stop-color="#7084B1"/>
</linearGradient>
<linearGradient id="paint4_linear_35228_45830" x1="119.875" y1="153.099" x2="119.875" y2="248.923" gradientUnits="userSpaceOnUse">
<stop stop-color="#B8C5E7"/>
<stop offset="1" stop-color="#7084B1"/>
</linearGradient>
<linearGradient id="paint5_linear_35228_45830" x1="218.46" y1="188.052" x2="156.708" y2="188.052" gradientUnits="userSpaceOnUse">
<stop stop-color="#0281CE"/>
<stop offset="1" stop-color="#0771C7"/>
</linearGradient>
<linearGradient id="paint6_linear_35228_45830" x1="286.116" y1="188.052" x2="224.364" y2="188.052" gradientUnits="userSpaceOnUse">
<stop stop-color="#0281CE"/>
<stop offset="1" stop-color="#0771C7"/>
</linearGradient>
<linearGradient id="paint7_linear_35228_45830" x1="187.583" y1="220.278" x2="187.583" y2="316.102" gradientUnits="userSpaceOnUse">
<stop stop-color="#B8C5E7"/>
<stop offset="1" stop-color="#7084B1"/>
</linearGradient>
<linearGradient id="paint8_linear_35228_45830" x1="255.239" y1="220.278" x2="255.239" y2="316.102" gradientUnits="userSpaceOnUse">
<stop stop-color="#B8C5E7"/>
<stop offset="1" stop-color="#7084B1"/>
</linearGradient>
<linearGradient id="paint9_linear_35228_45830" x1="119.875" y1="220.278" x2="119.875" y2="316.102" gradientUnits="userSpaceOnUse">
<stop stop-color="#B8C5E7"/>
<stop offset="1" stop-color="#7084B1"/>
</linearGradient>
<linearGradient id="paint10_linear_35228_45830" x1="277.745" y1="239.637" x2="245.101" y2="239.637" gradientUnits="userSpaceOnUse">
<stop stop-color="#0C63AA"/>
<stop offset="1" stop-color="#003A79"/>
</linearGradient>
<linearGradient id="paint11_linear_35228_45830" x1="342.069" y1="252.508" x2="205" y2="252.508" gradientUnits="userSpaceOnUse">
<stop stop-color="#0C63AA"/>
<stop offset="1" stop-color="#003A79"/>
</linearGradient>
</defs>
</svg>
