<svg width="376" height="376" viewBox="0 0 376 376" fill="none" xmlns="http://www.w3.org/2000/svg">
<path d="M257.75 59H119.251C116.041 59 113.057 60.7181 111.453 63.5066L42.2034 183.493C40.5989 186.282 40.5989 189.718 42.2034 192.507L111.453 312.493C113.057 315.282 116.041 317 119.251 317H257.75C260.959 317 263.943 315.282 265.547 312.493L334.797 192.507C336.401 189.718 336.401 186.282 334.797 183.493L265.547 63.5066C263.943 60.7181 260.959 59 257.75 59Z" fill="url(#paint0_linear_35228_45769)"/>
<path d="M215.967 349.934C218.158 349.934 219.934 348.158 219.934 345.967C219.934 343.776 218.158 342 215.967 342C213.776 342 212 343.776 212 345.967C212 348.158 213.776 349.934 215.967 349.934Z" fill="#008BC9"/>
<path d="M19.9671 249.767C22.1581 249.767 23.9342 247.991 23.9342 245.8C23.9342 243.609 22.1581 241.833 19.9671 241.833C17.7761 241.833 16 243.609 16 245.8C16 247.991 17.7761 249.767 19.9671 249.767Z" fill="#008BC9"/>
<path d="M62.0535 339.384C64.2445 339.384 66.0206 337.608 66.0206 335.417C66.0206 333.226 64.2445 331.45 62.0535 331.45C59.8626 331.45 58.0864 333.226 58.0864 335.417C58.0864 337.608 59.8626 339.384 62.0535 339.384Z" fill="#008BC9"/>
<path d="M86.636 360C88.827 360 90.6032 358.224 90.6032 356.033C90.6032 353.842 88.827 352.066 86.636 352.066C84.4451 352.066 82.6689 353.842 82.6689 356.033C82.6689 358.224 84.4451 360 86.636 360Z" fill="#008BC9"/>
<path d="M62.0532 71.1169C65.3397 71.1169 68.0039 68.4527 68.0039 65.1662C68.0039 61.8798 65.3397 59.2156 62.0532 59.2156C58.7667 59.2156 56.1025 61.8798 56.1025 65.1662C56.1025 68.4527 58.7667 71.1169 62.0532 71.1169Z" fill="#008BC9"/>
<path d="M41.0477 38.4042C43.2386 38.4042 45.0148 36.628 45.0148 34.4371C45.0148 32.2461 43.2386 30.47 41.0477 30.47C38.8567 30.47 37.0806 32.2461 37.0806 34.4371C37.0806 36.628 38.8567 38.4042 41.0477 38.4042Z" fill="#008BC9"/>
<path d="M187.278 23.9342C189.469 23.9342 191.245 22.1581 191.245 19.9671C191.245 17.7761 189.469 16 187.278 16C185.087 16 183.311 17.7761 183.311 19.9671C183.311 22.1581 185.087 23.9342 187.278 23.9342Z" fill="#008BC9"/>
<path d="M351.165 268.269C352.978 268.269 354.449 266.799 354.449 264.985C354.449 263.171 352.978 261.7 351.165 261.7C349.351 261.7 347.88 263.171 347.88 264.985C347.88 266.799 349.351 268.269 351.165 268.269Z" fill="#008BC9"/>
<path d="M283.171 359.967C284.985 359.967 286.455 358.497 286.455 356.683C286.455 354.869 284.985 353.399 283.171 353.399C281.357 353.399 279.887 354.869 279.887 356.683C279.887 358.497 281.357 359.967 283.171 359.967Z" fill="#008BC9"/>
<path d="M41.4378 89.424C43.6288 89.424 45.4049 87.6478 45.4049 85.4568C45.4049 83.2659 43.6288 81.4897 41.4378 81.4897C39.2468 81.4897 37.4707 83.2659 37.4707 85.4568C37.4707 87.6478 39.2468 89.424 41.4378 89.424Z" fill="#008BC9"/>
<path d="M332.304 47.802C336.022 47.802 339.035 44.7884 339.035 41.0709C339.035 37.3534 336.022 34.3398 332.304 34.3398C328.587 34.3398 325.573 37.3534 325.573 41.0709C325.573 44.7884 328.587 47.802 332.304 47.802Z" fill="#008BC9"/>
<path d="M355.155 70.0112C357.831 70.0112 360 67.842 360 65.1661C360 62.4903 357.831 60.321 355.155 60.321C352.479 60.321 350.31 62.4903 350.31 65.1661C350.31 67.842 352.479 70.0112 355.155 70.0112Z" fill="#008BC9"/>
<path d="M332.304 93.9763C334.657 93.9763 336.564 92.0691 336.564 89.7165C336.564 87.3639 334.657 85.4568 332.304 85.4568C329.952 85.4568 328.044 87.3639 328.044 89.7165C328.044 92.0691 329.952 93.9763 332.304 93.9763Z" fill="#008BC9"/>
<path d="M334.971 324.686C338.114 324.686 340.661 322.139 340.661 318.996C340.661 315.853 338.114 313.305 334.971 313.305C331.828 313.305 329.28 315.853 329.28 318.996C329.28 322.139 331.828 324.686 334.971 324.686Z" fill="#008BC9"/>
<path d="M261.666 192.304L261.533 192.137C261.101 191.556 261.234 190.791 261.816 190.359L274.214 181.251C274.796 180.836 275.56 180.952 275.992 181.534L276.125 181.7C276.541 182.282 276.424 183.046 275.843 183.479L263.444 192.586C262.863 193.002 262.065 192.885 261.666 192.304Z" fill="white"/>
<path d="M252.824 187.418L252.591 187.384C251.893 187.285 251.411 186.636 251.511 185.938L253.406 173.59C253.505 172.892 254.154 172.41 254.852 172.51L255.084 172.526C255.782 172.626 256.264 173.274 256.165 173.972L254.27 186.321C254.137 187.052 253.489 187.517 252.824 187.418Z" fill="white"/>
<path d="M263.544 202.059L263.528 202.275C263.428 202.973 263.91 203.622 264.608 203.721L276.956 205.616C277.654 205.716 278.303 205.234 278.402 204.536L278.419 204.32C278.519 203.622 278.053 202.973 277.339 202.874L264.99 200.979C264.292 200.879 263.644 201.361 263.544 202.059Z" fill="white"/>
<path fill-rule="evenodd" clip-rule="evenodd" d="M131.045 228.06H122.096C114.872 228.06 109.015 233.917 109.015 241.143V263.178C109.015 270.404 114.872 276.261 122.096 276.261H131.045C138.27 276.261 144.126 270.404 144.126 263.178V241.143C144.126 233.917 138.27 228.06 131.045 228.06ZM122.096 217.042C108.788 217.042 98 227.833 98 241.143V263.178C98 276.488 108.788 287.278 122.096 287.278H131.045C144.353 287.278 155.141 276.488 155.141 263.178V241.143C155.141 227.833 144.353 217.042 131.045 217.042H122.096Z" fill="url(#paint1_linear_35228_45769)"/>
<rect x="126.056" y="326.563" width="86.9022" height="2.38088" rx="1.19044" fill="url(#paint2_linear_35228_45769)"/>
<rect x="216.53" y="326.563" width="39.2845" height="2.38088" rx="1.19044" fill="url(#paint3_linear_35228_45769)"/>
<path d="M126.571 197.996H256.329V289.148C256.329 309.812 235.022 326.563 208.738 326.563H174.161C147.878 326.563 126.571 309.812 126.571 289.148V197.996Z" fill="url(#paint4_linear_35228_45769)"/>
<ellipse cx="191.325" cy="198.878" rx="64.9161" ry="13.9318" fill="#008BC9"/>
<ellipse cx="191.621" cy="198.582" rx="48.613" ry="9.48545" fill="url(#paint5_linear_35228_45769)"/>
<path d="M169.645 170.74V164.963C169.645 162.988 168.059 161.404 166.082 161.404H119.977C117.317 161.404 115.145 159.234 115.145 156.577V125.739C115.145 123.082 117.317 120.913 119.977 120.913H222.876C225.537 120.913 227.709 118.743 227.709 116.086V116.062C227.709 113.405 225.537 111.235 222.876 111.235H134.768C132.791 111.235 131.204 109.65 131.204 107.676V72.0361C131.204 70.0615 132.791 68.477 134.768 68.477H180.872C182.849 68.477 184.436 66.8925 184.436 64.9179C184.436 62.9433 182.849 61.3588 180.872 61.3588H174.771C172.11 61.3588 169.938 59.1892 169.938 56.5321V52.8267C169.938 50.1696 172.11 48 174.771 48H196.663C199.324 48 201.496 50.1696 201.496 52.8267V81.7139C201.496 84.3711 199.324 86.5406 196.663 86.5406H150.29C147.63 86.5406 145.458 88.7102 145.458 91.3674V92.9031C145.458 95.5603 147.63 97.7299 150.29 97.7299H251.408C254.068 97.7299 256.241 99.8994 256.241 102.557V132.321C256.241 134.979 254.068 137.148 251.408 137.148H143.408C140.747 137.148 138.575 139.318 138.575 141.975C138.575 144.632 140.747 146.802 143.408 146.802H209.379C211.356 146.802 212.943 148.386 212.943 150.361V170.716C212.943 172.69 211.356 174.275 209.379 174.275H173.208C171.232 174.299 169.645 172.715 169.645 170.74Z" fill="url(#paint6_linear_35228_45769)"/>
<defs>
<linearGradient id="paint0_linear_35228_45769" x1="339.138" y1="320.198" x2="36.2115" y2="64.6769" gradientUnits="userSpaceOnUse">
<stop stop-color="#0281CE" stop-opacity="0.5"/>
<stop offset="1" stop-color="#C9EAFF" stop-opacity="0.5"/>
</linearGradient>
<linearGradient id="paint1_linear_35228_45769" x1="155.141" y1="252.16" x2="98" y2="252.16" gradientUnits="userSpaceOnUse">
<stop stop-color="#0C63AA"/>
<stop offset="1" stop-color="#003A79"/>
</linearGradient>
<linearGradient id="paint2_linear_35228_45769" x1="212.958" y1="327.754" x2="126.056" y2="327.754" gradientUnits="userSpaceOnUse">
<stop stop-color="#0C63AA"/>
<stop offset="1" stop-color="#003A79"/>
</linearGradient>
<linearGradient id="paint3_linear_35228_45769" x1="255.814" y1="327.754" x2="216.53" y2="327.754" gradientUnits="userSpaceOnUse">
<stop stop-color="#0C63AA"/>
<stop offset="1" stop-color="#003A79"/>
</linearGradient>
<linearGradient id="paint4_linear_35228_45769" x1="256.329" y1="262.279" x2="126.571" y2="262.279" gradientUnits="userSpaceOnUse">
<stop stop-color="#0281CE"/>
<stop offset="1" stop-color="#0771C7"/>
</linearGradient>
<linearGradient id="paint5_linear_35228_45769" x1="240.234" y1="198.582" x2="143.008" y2="198.582" gradientUnits="userSpaceOnUse">
<stop stop-color="#0C63AA"/>
<stop offset="1" stop-color="#003A79"/>
</linearGradient>
<linearGradient id="paint6_linear_35228_45769" x1="257.742" y1="175.841" x2="110.09" y2="54.1316" gradientUnits="userSpaceOnUse">
<stop stop-color="#0281CE" stop-opacity="0.5"/>
<stop offset="1" stop-color="#C9EAFF" stop-opacity="0.5"/>
</linearGradient>
</defs>
</svg>
