<svg width="376" height="376" viewBox="0 0 376 376" fill="none" xmlns="http://www.w3.org/2000/svg">
<path d="M257.749 59H119.251C116.041 59 113.057 60.7181 111.453 63.5066L42.2034 183.493C40.5989 186.282 40.5989 189.718 42.2034 192.507L111.453 312.493C113.057 315.282 116.041 317 119.251 317H257.749C260.959 317 263.943 315.282 265.547 312.493L334.797 192.507C336.401 189.718 336.401 186.282 334.797 183.493L265.547 63.5066C263.943 60.7181 260.959 59 257.749 59Z" fill="url(#paint0_linear_35228_45688)"/>
<path d="M46.1417 40.7807C48.3358 40.7807 50.1144 39.002 50.1144 36.8079C50.1144 34.6139 48.3358 32.8352 46.1417 32.8352C43.9476 32.8352 42.1689 34.6139 42.1689 36.8079C42.1689 39.002 43.9476 40.7807 46.1417 40.7807Z" fill="#008BC9"/>
<path d="M298.019 335.219C299.854 335.219 301.341 333.732 301.341 331.897C301.341 330.063 299.854 328.576 298.019 328.576C296.185 328.576 294.698 330.063 294.698 331.897C294.698 333.732 296.185 335.219 298.019 335.219Z" fill="#008BC9"/>
<path d="M236.117 355.343C237.933 355.343 239.405 353.87 239.405 352.054C239.405 350.238 237.933 348.765 236.117 348.765C234.3 348.765 232.828 350.238 232.828 352.054C232.828 353.87 234.3 355.343 236.117 355.343Z" fill="#008BC9"/>
<path d="M337.812 341.113C340.006 341.113 341.784 339.334 341.784 337.14C341.784 334.946 340.006 333.167 337.812 333.167C335.618 333.167 333.839 334.946 333.839 337.14C333.839 339.334 335.618 341.113 337.812 341.113Z" fill="#008BC9"/>
<path d="M341.785 252.834C343.979 252.834 345.757 251.055 345.757 248.861C345.757 246.667 343.979 244.888 341.785 244.888C339.591 244.888 337.812 246.667 337.812 248.861C337.812 251.055 339.591 252.834 341.785 252.834Z" fill="#008BC9"/>
<path d="M19.9727 248.861C22.1668 248.861 23.9455 247.082 23.9455 244.888C23.9455 242.694 22.1668 240.916 19.9727 240.916C17.7787 240.916 16 242.694 16 244.888C16 247.082 17.7787 248.861 19.9727 248.861Z" fill="#008BC9"/>
<path d="M67.1773 360C69.3714 360 71.1501 358.221 71.1501 356.027C71.1501 353.833 69.3714 352.055 67.1773 352.055C64.9832 352.055 63.2046 353.833 63.2046 356.027C63.2046 358.221 64.9832 360 67.1773 360Z" fill="#008BC9"/>
<path d="M313.226 69.2087C315.42 69.2087 317.199 67.43 317.199 65.2359C317.199 63.0418 315.42 61.2632 313.226 61.2632C311.032 61.2632 309.253 63.0418 309.253 65.2359C309.253 67.43 311.032 69.2087 313.226 69.2087Z" fill="#008BC9"/>
<path d="M353.487 96.334C357.084 96.334 360 93.4181 360 89.8213C360 86.2244 357.084 83.3086 353.487 83.3086C349.89 83.3086 346.975 86.2244 346.975 89.8213C346.975 93.4181 349.89 96.334 353.487 96.334Z" fill="#008BC9"/>
<path d="M91.7955 23.9455C93.9896 23.9455 95.7682 22.1668 95.7682 19.9727C95.7682 17.7787 93.9896 16 91.7955 16C89.6014 16 87.8228 17.7787 87.8228 19.9727C87.8228 22.1668 89.6014 23.9455 91.7955 23.9455Z" fill="#008BC9"/>
<path d="M337.812 33.1935C340.006 33.1935 341.784 31.4149 341.784 29.2208C341.784 27.0267 340.006 25.248 337.812 25.248C335.618 25.248 333.839 27.0267 333.839 29.2208C333.839 31.4149 335.618 33.1935 337.812 33.1935Z" fill="#008BC9"/>
<path d="M67.1775 71.6834C70.7384 71.6834 73.6251 68.7968 73.6251 65.2359C73.6251 61.675 70.7384 58.7883 67.1775 58.7883C63.6167 58.7883 60.73 61.675 60.73 65.2359C60.73 68.7968 63.6167 71.6834 67.1775 71.6834Z" fill="#008BC9"/>
<path d="M46.1414 343.588C49.7023 343.588 52.589 340.701 52.589 337.14C52.589 333.579 49.7023 330.693 46.1414 330.693C42.5805 330.693 39.6938 333.579 39.6938 337.14C39.6938 340.701 42.5805 343.588 46.1414 343.588Z" fill="#008BC9"/>
<path d="M221.068 259.929H151.703L185.272 243.721V223.086H190.478V243.855L221.068 259.929Z" fill="url(#paint1_linear_35228_45688)"/>
<path d="M82.5254 304.365C82.5254 306.324 82.7401 308.202 83.1694 310.027H131.229C131.658 308.202 131.873 306.324 131.873 304.365C131.873 300.179 130.826 296.235 129.001 292.773C131.202 293.417 133.563 293.766 135.978 293.766C149.61 293.766 160.665 282.71 160.665 269.079C160.665 255.447 149.61 244.392 135.978 244.392C124.225 244.392 114.377 252.63 111.908 263.632C111.184 263.471 110.406 263.39 109.627 263.39C103.697 263.39 98.8671 268.193 98.8671 274.15C98.8671 276.512 99.6185 278.685 100.906 280.456C90.334 283.274 82.5254 292.907 82.5254 304.365Z" fill="url(#paint2_linear_35228_45688)"/>
<path d="M123.071 276.861V310.027H252.705V276.861C252.705 275.385 251.497 274.177 250.022 274.177H125.755C124.279 274.177 123.071 275.385 123.071 276.861Z" fill="url(#paint3_linear_35228_45688)"/>
<path d="M163.456 288.533H138.259C136.756 288.533 135.549 287.326 135.549 285.823C135.549 284.32 136.756 283.113 138.259 283.113H163.456C164.959 283.113 166.166 284.32 166.166 285.823C166.166 287.299 164.959 288.533 163.456 288.533Z" fill="white"/>
<path d="M163.456 301.091H138.259C136.756 301.091 135.549 299.884 135.549 298.381C135.549 296.878 136.756 295.671 138.259 295.671H163.456C164.959 295.671 166.166 296.878 166.166 298.381C166.166 299.884 164.959 301.091 163.456 301.091Z" fill="white"/>
<path d="M142.767 259.928H240.898C244.869 259.928 248.116 263.149 248.116 267.147C248.116 271.118 244.896 274.365 240.898 274.365H142.767C138.796 274.365 135.549 271.145 135.549 267.147C135.549 263.149 138.769 259.928 142.767 259.928Z" fill="url(#paint4_linear_35228_45688)"/>
<path d="M157 307.532C157 308.363 157.027 309.195 157.107 310.027H306.383C307.135 307.505 307.537 304.821 307.537 302.058C307.537 288.963 298.494 277.961 286.312 274.982C287.278 272.138 287.814 269.106 287.814 265.912C287.814 250.537 275.337 238.059 259.961 238.059C247.805 238.059 237.474 245.841 233.664 256.709C230.202 255.152 226.365 254.32 222.34 254.32C207.206 254.32 194.889 266.369 194.487 281.396C191.481 280.295 188.234 279.678 184.853 279.678C169.478 279.678 157 292.156 157 307.532Z" fill="url(#paint5_linear_35228_45688)"/>
<path d="M148.429 214.633C170.433 236.396 205.907 236.208 227.669 214.231C238.295 203.497 243.689 189.544 243.876 175.537C242.159 182.674 217.794 188.47 187.955 188.631C156.989 188.793 131.846 182.809 131.792 175.268C131.926 189.571 137.481 203.819 148.429 214.633Z" fill="url(#paint6_linear_35228_45688)"/>
<path d="M244.521 175.295C244.521 187.907 223.376 198.345 195.871 200.062C194.476 200.143 193.054 200.223 191.605 200.25C190.371 200.277 189.109 200.304 187.848 200.304C187.016 200.304 186.184 200.304 185.353 200.277C183.635 200.25 181.918 200.17 180.254 200.089C152.562 198.452 131.202 187.987 131.202 175.295C131.202 161.959 154.816 151.091 184.601 150.34C185.675 150.313 186.775 150.286 187.875 150.286C189.029 150.286 190.183 150.313 191.31 150.34C220.988 151.118 244.521 161.985 244.521 175.295Z" fill="url(#paint7_linear_35228_45688)"/>
<path d="M195.79 200.035C194.395 200.116 192.999 200.196 191.577 200.223C190.343 200.25 189.109 200.277 187.847 200.277C187.016 200.277 186.184 200.277 185.379 200.25C183.688 200.223 181.998 200.143 180.334 200.062L184.627 150.313L185.057 145.241C186.855 146.1 188.974 146.1 190.799 145.214L191.255 150.313L195.79 200.035Z" fill="url(#paint8_linear_35228_45688)"/>
<path d="M193.51 144.839C192.866 145.483 192.141 145.993 191.363 146.395C189.217 147.442 186.667 147.468 184.521 146.422C183.743 146.046 183.018 145.536 182.374 144.919C179.261 141.86 179.261 136.842 182.32 133.756C183.313 132.737 184.521 132.066 185.809 131.717C187.204 131.341 188.653 131.341 190.048 131.717C191.31 132.066 192.49 132.737 193.483 133.703C196.542 136.735 196.569 141.753 193.51 144.839Z" fill="url(#paint9_linear_35228_45688)"/>
<path d="M188.173 65.3882C199.47 65.4425 210.061 68.8393 219.689 75.5112C226.924 80.5246 231.212 85.7843 232.368 87.3257H232.367C233.306 88.5508 233.055 90.2883 231.844 91.2222C230.619 92.1675 228.876 91.9162 227.941 90.7036L227.939 90.7007C226.432 88.7265 212.709 71.6396 189.263 70.98L188.14 70.9614H187.928C163.587 70.9616 149.344 88.8275 147.814 90.8589L147.808 90.8657L147.802 90.8735C147.25 91.5639 146.421 91.9457 145.585 91.9458C145.006 91.9458 144.408 91.7749 143.906 91.3823C142.694 90.4472 142.446 88.7115 143.354 87.4888L143.356 87.4868C144.511 85.947 148.825 80.6049 156.169 75.5366C165.934 68.7565 176.713 65.3611 188.171 65.3882H188.173Z" fill="#0C63AA" stroke="#0C63AA" stroke-width="1.2803"/>
<path d="M188.012 89.1628C200.274 89.2144 207.86 97.2516 209.936 99.7712L210.278 100.197L210.279 100.199C211.215 101.413 211.011 103.158 209.787 104.102C208.574 105.037 206.832 104.835 205.887 103.614V103.615C204.735 102.149 198.487 94.7882 188.006 94.7361H187.902C177.344 94.7363 171.043 102.177 169.897 103.687L169.892 103.693L169.887 103.7C169.335 104.39 168.505 104.772 167.669 104.772C167.085 104.772 166.488 104.598 165.963 104.181V104.182C165.962 104.181 165.961 104.18 165.959 104.179C165.958 104.178 165.956 104.177 165.955 104.176V104.175C164.739 103.228 164.538 101.49 165.472 100.279C166.906 98.4051 174.773 89.1079 188.012 89.1628Z" fill="#0C63AA" stroke="#0C63AA" stroke-width="1.2803"/>
<path d="M187.956 109.448C191.263 109.448 194.405 111.012 196.633 113.676L196.646 113.689L196.668 113.71L196.688 113.734C197.66 114.914 197.52 116.654 196.34 117.66L196.333 117.667C195.153 118.639 193.412 118.501 192.406 117.321L192.355 117.261L192.329 117.207C191.609 116.352 190.125 115.023 187.956 115.023C186.539 115.023 185.439 115.549 184.685 116.087C184.308 116.356 184.022 116.626 183.833 116.826C183.738 116.926 183.668 117.007 183.625 117.061C183.618 117.07 183.612 117.079 183.606 117.086L183.571 117.136C183.017 117.932 182.146 118.35 181.248 118.35C180.738 118.35 180.178 118.214 179.681 117.864V117.865C179.678 117.862 179.675 117.86 179.672 117.858C179.671 117.857 179.669 117.856 179.667 117.855V117.854C178.4 116.986 178.088 115.276 178.9 114.028C178.902 114.025 178.902 114.023 178.903 114.022C178.907 114.015 178.911 114.008 178.914 114.004C178.919 113.996 178.924 113.988 178.929 113.981C178.939 113.966 178.952 113.948 178.966 113.928C178.995 113.887 179.036 113.833 179.086 113.767C179.188 113.635 179.335 113.453 179.527 113.239C179.911 112.811 180.479 112.249 181.226 111.69C182.721 110.57 184.953 109.448 187.875 109.448H187.956Z" fill="#0C63AA" stroke="#0C63AA" stroke-width="1.2803"/>
<path d="M193.724 235.698H191.014C190.719 235.698 190.478 235.939 190.478 236.234V239.75H185.272V236.234C185.272 235.939 185.03 235.698 184.735 235.698H182.025C181.73 235.698 181.488 235.939 181.488 236.234V245.519C181.488 245.814 181.73 246.056 182.025 246.056H184.735C185.03 246.056 185.272 245.814 185.272 245.519V242.004H190.478V245.519C190.478 245.814 190.719 246.056 191.014 246.056H193.724C194.02 246.056 194.261 245.814 194.261 245.519V236.234C194.261 235.939 194.02 235.698 193.724 235.698Z" fill="url(#paint10_linear_35228_45688)"/>
<path d="M286.972 190.026C286.972 184.284 282.329 179.642 276.587 179.642C273.099 179.642 270.013 181.359 268.134 183.989C267.625 183.828 267.088 183.747 266.551 183.747C263.546 183.747 261.104 186.189 261.104 189.195C261.104 189.517 261.131 189.839 261.184 190.161C257.32 190.805 254.369 194.159 254.369 198.211C254.369 202.719 258.018 206.368 262.526 206.368H286.972C291.48 206.368 295.129 202.719 295.129 198.211C295.129 193.703 291.453 190.026 286.972 190.026Z" fill="url(#paint11_linear_35228_45688)"/>
<path d="M136.113 135.527C136.113 132.79 138.34 130.563 141.077 130.563C142.74 130.563 144.216 131.395 145.129 132.629C145.37 132.549 145.612 132.522 145.88 132.522C147.302 132.522 148.483 133.676 148.483 135.125C148.483 135.286 148.456 135.447 148.429 135.581C150.281 135.876 151.676 137.486 151.676 139.418C151.676 141.565 149.932 143.309 147.785 143.309H136.113C133.966 143.309 132.222 141.565 132.222 139.418C132.222 137.272 133.966 135.527 136.113 135.527Z" fill="url(#paint12_linear_35228_45688)"/>
<path d="M121.595 207.307C121.595 203.739 118.697 200.841 115.129 200.841C114.994 200.841 114.833 200.841 114.699 200.867C114.27 198.399 112.096 196.52 109.493 196.52C109.171 196.52 108.849 196.547 108.554 196.601C107.642 194.132 105.254 192.361 102.463 192.361C99.2161 192.361 96.5327 194.749 96.0497 197.862C95.8082 197.808 95.5667 197.755 95.2984 197.755C93.6079 197.755 92.2125 199.123 92.2125 200.841V200.867C91.9978 200.841 91.81 200.841 91.5953 200.841C88.0265 200.841 85.1284 203.739 85.1284 207.307C85.1284 210.876 88.0265 213.774 91.5953 213.774H115.37C118.832 213.64 121.595 210.796 121.595 207.307Z" fill="url(#paint13_linear_35228_45688)"/>
<defs>
<linearGradient id="paint0_linear_35228_45688" x1="339.138" y1="320.198" x2="36.2115" y2="64.6769" gradientUnits="userSpaceOnUse">
<stop stop-color="#0281CE" stop-opacity="0.5"/>
<stop offset="1" stop-color="#C9EAFF" stop-opacity="0.5"/>
</linearGradient>
<linearGradient id="paint1_linear_35228_45688" x1="221.068" y1="241.507" x2="151.703" y2="241.507" gradientUnits="userSpaceOnUse">
<stop stop-color="#0C63AA"/>
<stop offset="1" stop-color="#003A79"/>
</linearGradient>
<linearGradient id="paint2_linear_35228_45688" x1="160.665" y1="277.209" x2="82.5254" y2="277.209" gradientUnits="userSpaceOnUse">
<stop stop-color="#0281CE"/>
<stop offset="1" stop-color="#0A65AE"/>
</linearGradient>
<linearGradient id="paint3_linear_35228_45688" x1="252.705" y1="292.102" x2="123.071" y2="292.102" gradientUnits="userSpaceOnUse">
<stop stop-color="#0281CE"/>
<stop offset="1" stop-color="#0A65AE"/>
</linearGradient>
<linearGradient id="paint4_linear_35228_45688" x1="248.116" y1="267.147" x2="135.549" y2="267.147" gradientUnits="userSpaceOnUse">
<stop stop-color="#0281CE"/>
<stop offset="1" stop-color="#0A65AE"/>
</linearGradient>
<linearGradient id="paint5_linear_35228_45688" x1="307.537" y1="274.043" x2="157" y2="274.043" gradientUnits="userSpaceOnUse">
<stop stop-color="#0281CE"/>
<stop offset="1" stop-color="#0A65AE"/>
</linearGradient>
<linearGradient id="paint6_linear_35228_45688" x1="243.876" y1="203.052" x2="131.792" y2="203.052" gradientUnits="userSpaceOnUse">
<stop stop-color="#0281CE"/>
<stop offset="1" stop-color="#0A65AE"/>
</linearGradient>
<linearGradient id="paint7_linear_35228_45688" x1="244.521" y1="175.295" x2="131.202" y2="175.295" gradientUnits="userSpaceOnUse">
<stop stop-color="#0C63AA"/>
<stop offset="1" stop-color="#003A79"/>
</linearGradient>
<linearGradient id="paint8_linear_35228_45688" x1="195.79" y1="172.746" x2="180.334" y2="172.746" gradientUnits="userSpaceOnUse">
<stop stop-color="#0281CE"/>
<stop offset="1" stop-color="#0A65AE"/>
</linearGradient>
<linearGradient id="paint9_linear_35228_45688" x1="195.791" y1="139.314" x2="180.033" y2="139.314" gradientUnits="userSpaceOnUse">
<stop stop-color="#0281CE"/>
<stop offset="1" stop-color="#0A65AE"/>
</linearGradient>
<linearGradient id="paint10_linear_35228_45688" x1="194.261" y1="240.877" x2="181.488" y2="240.877" gradientUnits="userSpaceOnUse">
<stop stop-color="#0281CE"/>
<stop offset="1" stop-color="#0A65AE"/>
</linearGradient>
<linearGradient id="paint11_linear_35228_45688" x1="295.129" y1="193.005" x2="254.369" y2="193.005" gradientUnits="userSpaceOnUse">
<stop stop-color="#0281CE"/>
<stop offset="1" stop-color="#0A65AE"/>
</linearGradient>
<linearGradient id="paint12_linear_35228_45688" x1="151.676" y1="136.936" x2="132.222" y2="136.936" gradientUnits="userSpaceOnUse">
<stop stop-color="#0281CE"/>
<stop offset="1" stop-color="#0A65AE"/>
</linearGradient>
<linearGradient id="paint13_linear_35228_45688" x1="121.595" y1="203.068" x2="85.1284" y2="203.068" gradientUnits="userSpaceOnUse">
<stop stop-color="#0281CE"/>
<stop offset="1" stop-color="#0A65AE"/>
</linearGradient>
</defs>
</svg>
