<svg width="376" height="376" viewBox="0 0 376 376" fill="none" xmlns="http://www.w3.org/2000/svg">
<path d="M257.749 59H119.251C116.041 59 113.057 60.7181 111.453 63.5066L42.2034 183.493C40.5989 186.282 40.5989 189.718 42.2034 192.507L111.453 312.493C113.057 315.282 116.041 317 119.251 317H257.749C260.959 317 263.943 315.282 265.547 312.493L334.797 192.507C336.401 189.718 336.401 186.282 334.797 183.493L265.547 63.5066C263.943 60.7181 260.959 59 257.749 59Z" fill="url(#paint0_linear_35228_46106)"/>
<path d="M65.5428 66.5429C67.7966 66.5429 69.6237 64.7158 69.6237 62.462C69.6237 60.2082 67.7966 58.3811 65.5428 58.3811C63.289 58.3811 61.4619 60.2082 61.4619 62.462C61.4619 64.7158 63.289 66.5429 65.5428 66.5429Z" fill="#008BC9"/>
<path d="M46.3431 56.9431C48.5969 56.9431 50.424 55.116 50.424 52.8622C50.424 50.6083 48.5969 48.7812 46.3431 48.7812C44.0893 48.7812 42.2622 50.6083 42.2622 52.8622C42.2622 55.116 44.0893 56.9431 46.3431 56.9431Z" fill="#008BC9"/>
<path d="M170.677 360C172.561 360 174.089 358.472 174.089 356.588C174.089 354.704 172.561 353.176 170.677 353.176C168.793 353.176 167.265 354.704 167.265 356.588C167.265 358.472 168.793 360 170.677 360Z" fill="#008BC9"/>
<path d="M322.34 347.958C324.594 347.958 326.421 346.131 326.421 343.877C326.421 341.623 324.594 339.796 322.34 339.796C320.086 339.796 318.259 341.623 318.259 343.877C318.259 346.131 320.086 347.958 322.34 347.958Z" fill="#008BC9"/>
<path d="M350.17 296.746C352.424 296.746 354.251 294.919 354.251 292.665C354.251 290.411 352.424 288.584 350.17 288.584C347.916 288.584 346.089 290.411 346.089 292.665C346.089 294.919 347.916 296.746 350.17 296.746Z" fill="#008BC9"/>
<path d="M42.5926 296.311C44.8464 296.311 46.6735 294.484 46.6735 292.23C46.6735 289.977 44.8464 288.149 42.5926 288.149C40.3388 288.149 38.5117 289.977 38.5117 292.23C38.5117 294.484 40.3388 296.311 42.5926 296.311Z" fill="#008BC9"/>
<path d="M20.0809 323.339C22.3347 323.339 24.1618 321.511 24.1618 319.258C24.1618 317.004 22.3347 315.177 20.0809 315.177C17.8271 315.177 16 317.004 16 319.258C16 321.511 17.8271 323.339 20.0809 323.339Z" fill="#008BC9"/>
<path d="M46.6404 335.314C50.2428 335.314 53.1632 332.394 53.1632 328.791C53.1632 325.189 50.2428 322.269 46.6404 322.269C43.038 322.269 40.1177 325.189 40.1177 328.791C40.1177 332.394 43.038 335.314 46.6404 335.314Z" fill="#008BC9"/>
<path d="M355.919 45.3354C358.173 45.3354 360 43.5083 360 41.2545C360 39.0007 358.173 37.1736 355.919 37.1736C353.665 37.1736 351.838 39.0007 351.838 41.2545C351.838 43.5083 353.665 45.3354 355.919 45.3354Z" fill="#008BC9"/>
<path d="M337.369 73.233C341.064 73.233 344.059 70.2378 344.059 66.543C344.059 62.8482 341.064 59.853 337.369 59.853C333.674 59.853 330.679 62.8482 330.679 66.543C330.679 70.2378 333.674 73.233 337.369 73.233Z" fill="#008BC9"/>
<path d="M43.9344 99.9594C46.1882 99.9594 48.0153 98.1323 48.0153 95.8785C48.0153 93.6247 46.1882 91.7976 43.9344 91.7976C41.6806 91.7976 39.8535 93.6247 39.8535 95.8785C39.8535 98.1323 41.6806 99.9594 43.9344 99.9594Z" fill="#008BC9"/>
<path d="M312.081 33.6284C314.335 33.6284 316.162 31.8013 316.162 29.5475C316.162 27.2936 314.335 25.4666 312.081 25.4666C309.827 25.4666 308 27.2936 308 29.5475C308 31.8013 309.827 33.6284 312.081 33.6284Z" fill="#008BC9"/>
<path d="M120.133 29.2462C123.791 29.2462 126.756 26.2809 126.756 22.6231C126.756 18.9653 123.791 16 120.133 16C116.476 16 113.51 18.9653 113.51 22.6231C113.51 26.2809 116.476 29.2462 120.133 29.2462Z" fill="#008BC9"/>
<path d="M350.17 325.881C353.827 325.881 356.793 322.916 356.793 319.258C356.793 315.6 353.827 312.635 350.17 312.635C346.512 312.635 343.546 315.6 343.546 319.258C343.546 322.916 346.512 325.881 350.17 325.881Z" fill="#008BC9"/>
<path d="M221.253 26.0015C223.119 26.0015 224.632 24.4889 224.632 22.6231C224.632 20.7572 223.119 19.2446 221.253 19.2446C219.388 19.2446 217.875 20.7572 217.875 22.6231C217.875 24.4889 219.388 26.0015 221.253 26.0015Z" fill="#008BC9"/>
<mask id="mask0_35228_46106" style="mask-type:luminance" maskUnits="userSpaceOnUse" x="45" y="150" width="42" height="32">
<path d="M45.5754 166.037L56.7672 168.745C57.0079 168.805 57.2185 168.986 57.3087 169.196L62.0923 180.809C62.333 181.351 63.0551 181.441 63.4161 180.99L68.6509 174.221C68.8916 173.89 69.3429 173.83 69.7039 174.04L80.655 181.441C81.1063 181.742 81.7682 181.471 81.8584 180.93L86.7022 151.837C86.7925 151.266 86.2509 150.784 85.7094 150.995L45.5754 164.623C44.7932 164.804 44.8233 165.857 45.5754 166.037Z" fill="white"/>
</mask>
<g mask="url(#mask0_35228_46106)">
<path d="M43.0181 165.406L57.1582 168.835C57.79 168.474 86.8826 150.543 86.8826 150.543L43.0181 165.406Z" fill="url(#paint1_linear_35228_46106)"/>
</g>
<mask id="mask1_35228_46106" style="mask-type:luminance" maskUnits="userSpaceOnUse" x="45" y="150" width="42" height="32">
<path d="M45.5754 166.037L56.7672 168.745C57.0079 168.805 57.2185 168.986 57.3087 169.196L62.0923 180.809C62.333 181.351 63.0551 181.441 63.4161 180.99L68.6509 174.221C68.8916 173.89 69.3429 173.83 69.7039 174.04L80.655 181.441C81.1063 181.742 81.7682 181.471 81.8584 180.93L86.7022 151.837C86.7925 151.266 86.2509 150.784 85.7094 150.995L45.5754 164.623C44.7932 164.804 44.8233 165.857 45.5754 166.037Z" fill="white"/>
</mask>
<g mask="url(#mask1_35228_46106)">
<path d="M57.1582 168.835C57.79 168.474 86.8826 150.543 86.8826 150.543L62.6037 182.043L57.1582 168.835Z" fill="url(#paint2_linear_35228_46106)"/>
</g>
<mask id="mask2_35228_46106" style="mask-type:luminance" maskUnits="userSpaceOnUse" x="45" y="150" width="42" height="32">
<path d="M45.5754 166.037L56.7672 168.745C57.0079 168.805 57.2185 168.986 57.3087 169.196L62.0923 180.809C62.333 181.351 63.0551 181.441 63.4161 180.99L68.6509 174.221C68.8916 173.89 69.3429 173.83 69.7039 174.04L80.655 181.441C81.1063 181.742 81.7682 181.471 81.8584 180.93L86.7022 151.837C86.7925 151.266 86.2509 150.784 85.7094 150.995L45.5754 164.623C44.7932 164.804 44.8233 165.857 45.5754 166.037Z" fill="white"/>
</mask>
<g mask="url(#mask2_35228_46106)">
<path d="M67.869 172.867L86.8829 150.543L62.604 182.043L67.869 172.867Z" fill="url(#paint3_linear_35228_46106)"/>
</g>
<mask id="mask3_35228_46106" style="mask-type:luminance" maskUnits="userSpaceOnUse" x="45" y="150" width="42" height="32">
<path d="M45.5754 166.037L56.7672 168.745C57.0079 168.805 57.2185 168.986 57.3087 169.196L62.0923 180.809C62.333 181.351 63.0551 181.441 63.4161 180.99L68.6509 174.221C68.8916 173.89 69.3429 173.83 69.7039 174.04L80.655 181.441C81.1063 181.742 81.7682 181.471 81.8584 180.93L86.7022 151.837C86.7925 151.266 86.2509 150.784 85.7094 150.995L45.5754 164.623C44.7932 164.804 44.8233 165.857 45.5754 166.037Z" fill="white"/>
</mask>
<g mask="url(#mask3_35228_46106)">
<path d="M81.6177 182.073L86.8826 150.543L67.8687 172.807L81.6177 182.073Z" fill="url(#paint4_linear_35228_46106)"/>
</g>
<path d="M153.551 282.708C148.527 290.801 134.055 295.043 134.055 295.043H108.182C108.182 295.043 97.9229 290.771 96.6593 283.49C96.1178 280.331 96.9301 276.721 98.675 273.983C98.7352 273.893 98.7653 273.833 98.8255 273.743C98.8856 273.652 98.9458 273.592 99.006 273.502C101.353 270.313 104.512 270.193 105.805 266.763C106.497 264.958 106.437 262.882 105.926 261.348C103.669 254.608 92.2368 257.406 86.3099 249.855C84.926 248.08 83.9332 245.884 83.4217 243.597C83.3616 243.356 83.3014 243.116 83.2713 242.875C82.6395 239.445 83.0607 235.925 84.7154 233.428C87.3629 229.367 91.3944 230.841 97.0203 225.757C97.0805 225.696 97.1708 225.636 97.2309 225.576C97.2911 225.516 97.3814 225.426 97.4415 225.365C99.5174 223.44 103.549 219.529 103.429 214.775C103.308 210.052 99.2768 209.3 94.1923 201.056C92.2067 197.867 90.0706 194.377 89.2282 190.226C89.1981 190.045 89.138 189.835 89.1079 189.654C88.9274 188.571 88.8371 187.398 88.8371 186.194C88.8672 184.479 89.2884 175.965 95.5763 172.024C95.6665 171.964 95.7267 171.904 95.8169 171.874C95.9072 171.813 95.9974 171.753 96.1178 171.693C102.195 168.293 110.017 170.79 114.53 174.25C121.239 179.425 118.531 185.201 125.271 190.948C131.829 196.544 136.432 192.843 142.57 198.108C148.948 203.553 152.077 214.474 149.128 222.778C145.699 232.435 135.891 233.097 136.011 240.077C136.071 243.567 139.561 247.237 146.541 254.608C152.528 260.896 154.273 261.317 155.687 264.567C158.334 270.524 156.559 277.834 153.551 282.708Z" fill="url(#paint5_linear_35228_46106)"/>
<path opacity="0.5" d="M113.387 234.301C114.019 215.678 111.943 202.501 109.235 193.385L109.596 193.445H109.656C109.807 193.445 109.927 193.355 109.927 193.204C109.957 193.054 109.837 192.903 109.686 192.873L109.055 192.783C107.881 188.962 106.618 185.894 105.384 183.457C101.263 175.213 97.0205 172.295 96.148 171.753C96.0578 171.814 95.9675 171.874 95.8472 171.934C95.7569 171.994 95.6968 172.024 95.6065 172.084C95.6366 172.114 95.6667 172.145 95.6968 172.175C95.7569 172.205 100.45 174.852 104.903 183.788C106.076 186.134 107.28 189.083 108.423 192.723L89.2284 189.714C89.1983 189.714 89.1682 189.714 89.1381 189.714C89.1682 189.895 89.1983 190.106 89.2585 190.286L108.633 193.325C111.341 202.32 113.417 215.377 112.845 233.85L97.4718 225.456C97.3815 225.516 97.3214 225.606 97.2612 225.666C97.201 225.727 97.1108 225.787 97.0506 225.847C97.0807 225.877 97.1108 225.907 97.1108 225.907L112.815 234.512C112.515 243.477 112.635 251.179 112.996 257.768L83.2715 242.966C83.3016 243.206 83.3617 243.447 83.4219 243.688L112.966 258.399C112.996 258.399 113.026 258.429 113.026 258.429C113.748 270.223 115.343 278.466 117.087 284.183L98.9761 273.593C98.9159 273.653 98.8557 273.743 98.7956 273.833C98.7354 273.923 98.7053 273.984 98.6451 274.074L117.298 284.995C119.103 290.681 121.029 293.69 122.172 295.104H122.954C120.547 292.155 111.883 278.647 113.387 234.301Z" fill="white"/>
<path d="M131.71 295.434C131.499 295.495 131.319 295.525 131.108 295.555C129.754 295.856 128.4 295.976 127.046 295.916C118.442 295.525 110.83 287.612 107.822 280.332C105.445 274.585 105.686 268.929 106.679 263.574C106.709 263.363 106.769 263.183 106.799 262.972C107.19 261.017 107.671 259.121 108.153 257.256C109.116 253.616 110.289 251.058 111.402 248.802C111.492 248.622 111.583 248.471 111.673 248.291C113.358 244.861 114.832 242.063 114.982 236.948C115.253 228.073 111.282 220.371 110.199 218.235C109.416 216.701 108.634 215.437 107.942 214.384C107.792 214.174 107.641 213.963 107.491 213.753C104.994 210.233 103.099 208.879 102.256 204.697C101.715 202.019 101.745 198.83 105.325 189.113C105.957 187.428 106.528 185.924 107.07 184.63C107.13 184.449 107.22 184.269 107.28 184.118C111.492 173.98 113.508 173.98 114.681 167.752C116.035 160.562 114.772 153.371 113.267 148.226C113.207 148.016 113.147 147.805 113.087 147.595C112.034 144.135 110.951 141.698 110.62 140.946C107.641 134.477 104.843 132.371 105.355 127.618C105.896 122.714 109.717 117.449 115.253 115.855C115.343 115.825 115.434 115.794 115.524 115.764C115.614 115.734 115.704 115.704 115.825 115.704C121.39 114.35 126.144 117.299 128.731 119.405C128.882 119.525 129.032 119.645 129.183 119.766C129.844 120.307 130.296 120.789 130.566 121.029C137.576 127.829 137.456 138.088 137.396 143.533C137.336 148.949 136.343 150.934 135.44 155.597C135.38 155.989 135.29 156.41 135.2 156.861C134.869 158.756 134.568 161.103 134.357 164.202C133.816 171.723 133.545 175.484 134.989 179.395C137.185 185.292 140.555 186.044 143.924 190.105C144.045 190.256 144.165 190.406 144.285 190.557C145.038 191.549 145.82 192.693 146.542 194.137C149.941 200.756 149.851 207.585 150.152 211.917C150.603 218.476 149.46 222.207 149.641 226.418C150.453 243.627 155.718 248.652 155.959 258.61C156.29 273.893 144.556 292.155 131.71 295.434Z" fill="url(#paint6_linear_35228_46106)"/>
<path opacity="0.5" d="M146.902 215.829C146.782 215.708 146.601 215.708 146.511 215.798L129.784 230.751C129.001 224.974 127.978 216.671 127.196 207.405L144.225 190.527C144.104 190.376 143.984 190.226 143.864 190.075H143.834L127.106 206.622C126.264 196.514 125.692 185.292 126.023 175.033L135.109 156.831C135.169 156.38 135.259 155.959 135.349 155.567C135.229 155.537 135.109 155.598 135.049 155.718L126.083 173.679C126.113 172.716 126.173 171.783 126.234 170.821C126.564 164.894 126.354 159.087 125.752 153.612C125.752 153.552 125.752 153.522 125.722 153.461C124.82 145.278 123.135 137.817 121.42 131.71L129.092 119.766C128.941 119.645 128.791 119.525 128.64 119.405C128.64 119.405 128.61 119.405 128.61 119.435L121.209 130.988C118.622 122.143 116.005 116.366 115.734 115.734C115.643 115.764 115.553 115.795 115.433 115.795C115.343 115.825 115.252 115.855 115.162 115.885C115.162 115.885 115.162 115.915 115.192 115.915C115.282 116.125 122.774 132.161 125.12 153.1L113.207 147.595C113.146 147.565 113.056 147.565 112.996 147.565C113.056 147.775 113.116 147.986 113.176 148.197L125.15 153.732C125.722 159.148 125.963 164.894 125.632 170.791C125.542 172.145 125.481 173.498 125.451 174.912C125.451 174.942 125.451 174.973 125.451 175.003C125.301 179.726 125.331 184.63 125.512 189.564L107.22 184.119C107.159 184.299 107.069 184.48 107.009 184.63H107.039L125.542 190.136C125.752 195.942 126.143 201.749 126.595 207.224C126.595 207.254 126.595 207.284 126.595 207.344V207.375C127.016 212.248 127.467 216.851 127.948 220.943L107.701 213.723C107.611 213.692 107.52 213.692 107.43 213.753C107.581 213.963 107.731 214.174 107.881 214.384L128.039 221.575C128.46 225.275 128.911 228.585 129.272 231.292C129.272 231.323 129.272 231.383 129.302 231.413C129.964 236.166 130.446 239.085 130.446 239.205C130.476 239.295 132.521 246.967 128.46 257.647L111.642 248.321C111.492 248.23 111.341 248.291 111.251 248.441C111.161 248.592 111.221 248.742 111.371 248.832L128.249 258.219C127.557 259.994 126.685 261.829 125.632 263.724C123.044 268.297 122.774 273.322 123.526 277.985L106.919 263.063C106.889 263.033 106.828 263.002 106.768 263.002C106.738 263.213 106.678 263.394 106.648 263.604L123.616 278.827C123.646 278.857 123.646 278.857 123.676 278.857C125.301 287.191 130.145 294.261 131.077 295.555C131.288 295.525 131.468 295.465 131.679 295.435C131.559 295.254 118.472 277.654 126.113 263.995C127.226 262.01 128.129 260.084 128.851 258.249V258.219V258.189C128.851 258.189 128.851 258.189 128.851 258.159C133.093 247.147 130.987 239.175 130.957 239.115C130.927 239.024 130.476 236.136 129.814 231.443L146.812 216.25C146.992 216.129 147.023 215.949 146.902 215.829Z" fill="white"/>
<path d="M245.191 79H130.716C128.821 79 127.287 80.5344 127.287 82.4297V290.801C127.287 292.697 128.821 294.231 130.716 294.231H245.191C247.087 294.231 248.621 292.697 248.621 290.801V82.4297C248.621 80.5344 247.087 79 245.191 79ZM243.055 285.837C243.055 287.733 241.521 289.267 239.626 289.267H136.282C134.387 289.267 132.852 287.733 132.852 285.837V89.199C132.852 87.3036 134.387 85.7692 136.282 85.7692H158.936L165.164 91.1846C165.676 91.6359 166.337 91.8766 167.029 91.8766H208.848C209.54 91.8766 210.202 91.6359 210.713 91.1846L216.941 85.7692H239.626C241.521 85.7692 243.055 87.3036 243.055 89.199V285.837Z" fill="url(#paint7_linear_35228_46106)"/>
<path d="M243.055 89.1988V285.837C243.055 287.732 241.521 289.267 239.625 289.267H136.282C134.386 289.267 132.852 287.732 132.852 285.837V89.1988C132.852 87.3034 134.386 85.769 136.282 85.769H158.936L165.164 91.1844C165.675 91.6357 166.337 91.8764 167.029 91.8764H208.848C209.54 91.8764 210.202 91.6357 210.713 91.1844L216.941 85.769H239.625C241.521 85.769 243.055 87.3034 243.055 89.1988Z" fill="white"/>
<path d="M188.841 206.743C208.447 206.743 224.341 191.05 224.341 171.693C224.341 152.336 208.447 136.644 188.841 136.644C169.234 136.644 153.34 152.336 153.34 171.693C153.34 191.05 169.234 206.743 188.841 206.743Z" fill="url(#paint8_linear_35228_46106)"/>
<path d="M181.289 190.496L167.45 176.838C167.33 176.717 167.33 176.507 167.45 176.386L173.347 170.58C173.467 170.46 173.678 170.46 173.798 170.58L181.289 177.981C181.41 178.101 181.62 178.101 181.741 177.981L203.944 156.079C204.064 155.958 204.275 155.958 204.395 156.079L210.292 161.885C210.412 162.006 210.412 162.216 210.292 162.337L181.711 190.527C181.59 190.587 181.38 190.587 181.289 190.496Z" fill="white"/>
<path d="M206.592 284.754H169.316C168.804 284.754 168.383 284.333 168.383 283.822V282.137C168.383 281.625 168.804 281.204 169.316 281.204H206.592C207.103 281.204 207.524 281.625 207.524 282.137V283.822C207.524 284.333 207.103 284.754 206.592 284.754Z" fill="url(#paint9_linear_35228_46106)"/>
<path d="M219.739 225.697H157.943C157.432 225.697 157.011 225.275 157.011 224.764V223.079C157.011 222.568 157.432 222.146 157.943 222.146H219.709C220.22 222.146 220.641 222.568 220.641 223.079V224.764C220.671 225.275 220.25 225.697 219.739 225.697Z" fill="url(#paint10_linear_35228_46106)"/>
<path d="M205.989 234.301H171.692C171.18 234.301 170.759 233.88 170.759 233.368V231.683C170.759 231.172 171.18 230.751 171.692 230.751H206.019C206.531 230.751 206.952 231.172 206.952 231.683V233.368C206.952 233.88 206.531 234.301 205.989 234.301Z" fill="url(#paint11_linear_35228_46106)"/>
<path d="M280.541 257.647C279.037 274.766 263.633 293.69 248.861 295.675C248.651 295.705 248.44 295.735 248.23 295.735C246.695 295.886 245.161 295.856 243.657 295.615C234.089 294.081 226.628 284.333 224.161 275.819C222.206 269.11 223.199 262.792 225.004 256.955C225.064 256.745 225.124 256.564 225.184 256.354C225.876 254.217 226.658 252.142 227.441 250.126C228.975 246.155 230.63 243.447 232.134 241.07C232.224 240.92 232.345 240.739 232.435 240.589C234.781 236.948 236.767 234 237.579 228.344C238.993 218.476 235.564 209.39 234.601 206.863C233.909 204.998 233.187 203.493 232.525 202.23C232.405 201.989 232.284 201.779 232.164 201.538C229.817 197.266 227.832 195.551 227.441 190.737C227.17 187.669 227.621 184.118 232.826 173.739C233.728 171.934 234.571 170.339 235.353 168.925C235.443 168.745 235.534 168.594 235.624 168.414C241.611 157.613 243.837 157.854 245.943 151.055C248.38 143.202 247.839 134.989 246.816 129.032C246.786 128.821 246.725 128.581 246.695 128.37C245.973 124.369 245.041 121.511 244.74 120.608C242.213 112.997 239.385 110.319 240.558 105.084C241.791 99.6688 246.725 94.2835 253.103 93.2004C253.194 93.1703 253.284 93.1703 253.374 93.1402C253.464 93.1101 253.555 93.1101 253.675 93.1101C260.083 92.2978 265.047 96.2089 267.695 98.8865C267.845 99.037 267.966 99.1573 268.086 99.2776C268.748 99.9997 269.229 100.571 269.5 100.902C276.45 109.386 275.036 120.819 274.284 126.866C273.531 132.913 272.178 135.019 270.583 140.073C270.463 140.465 270.342 140.886 270.222 141.307C269.62 143.413 268.989 146.03 268.327 149.52C266.762 157.854 266.01 162.006 267.123 166.519C268.838 173.378 272.509 174.642 275.758 179.636C275.848 179.786 275.968 179.937 276.059 180.117C276.781 181.321 277.503 182.704 278.165 184.419C281.113 192.211 280.18 199.823 279.94 204.697C279.609 212.068 277.864 216.099 277.563 220.793C276.299 240.228 281.534 246.516 280.541 257.647Z" fill="url(#paint12_linear_35228_46106)"/>
<path opacity="0.5" d="M275.848 208.819C275.938 208.939 275.908 209.119 275.788 209.21L254.878 224.042C254.999 229.367 255.179 232.646 255.179 232.767C255.179 232.857 256.563 241.973 250.456 253.706C250.456 253.736 250.426 253.766 250.395 253.796C250.395 253.796 250.395 253.796 250.365 253.796C249.343 255.752 248.109 257.798 246.605 259.873C236.496 273.923 248.29 294.742 248.831 295.645C248.831 295.675 248.861 295.675 248.861 295.675C248.951 295.795 248.891 295.976 248.771 296.066C248.711 296.096 248.681 296.096 248.62 296.096C248.53 296.096 248.44 296.036 248.38 295.946C248.38 295.946 248.32 295.856 248.229 295.705C247.357 294.141 242.844 285.657 242.092 276.15C242.062 276.12 242.032 276.12 242.032 276.089L225.003 256.955C225.064 256.745 225.124 256.564 225.184 256.353C225.244 256.384 225.274 256.414 225.304 256.444L242.032 275.247C241.731 269.922 242.694 264.356 246.153 259.543C247.598 257.527 248.771 255.571 249.794 253.706L232.134 241.1C232.224 240.95 232.344 240.769 232.434 240.619C232.434 240.619 232.435 240.619 232.465 240.619L250.065 253.164C255.961 241.732 254.638 232.887 254.638 232.797C254.638 232.676 254.457 229.367 254.337 223.951C254.337 223.921 254.337 223.861 254.337 223.831C254.277 220.762 254.186 217.032 254.186 212.82L232.555 202.23C232.435 201.989 232.314 201.779 232.194 201.538C232.254 201.508 232.374 201.478 232.465 201.538L254.216 212.188C254.216 207.525 254.246 202.32 254.397 196.814C254.397 196.754 254.397 196.724 254.397 196.664C254.577 190.497 254.878 183.968 255.39 177.439L235.413 168.955H235.383C235.473 168.775 235.563 168.624 235.654 168.444L255.42 176.838C255.841 171.302 256.443 165.766 257.195 160.501C257.405 158.937 257.676 157.403 257.917 155.898C259.03 149.37 259.511 142.931 259.541 136.794L246.845 129.092C246.815 128.882 246.755 128.641 246.725 128.43C246.785 128.43 246.876 128.43 246.906 128.46L259.541 136.102C259.572 112.425 253.224 93.5312 253.133 93.2906C253.133 93.2605 253.133 93.2605 253.133 93.2304C253.224 93.2003 253.314 93.2003 253.404 93.1702C253.494 93.1401 253.585 93.1401 253.705 93.1401C253.915 93.802 256.142 100.631 257.917 110.951L267.695 98.9466L267.725 98.9165C267.875 99.067 267.995 99.1873 268.116 99.3076L258.037 111.703C259.211 118.713 260.143 127.257 260.083 136.523C260.113 136.583 260.113 136.644 260.083 136.704C260.053 142.901 259.572 149.4 258.458 155.989C258.278 157.072 258.097 158.185 257.917 159.298L270.252 140.284C270.312 140.164 270.462 140.134 270.583 140.164C270.462 140.555 270.342 140.976 270.222 141.397L257.736 160.652C256.082 172.114 255.299 184.72 254.968 196.122L275.757 179.726C275.757 179.726 275.757 179.726 275.788 179.726C275.878 179.876 275.998 180.027 276.088 180.207L254.938 196.875C254.638 207.344 254.758 216.791 254.878 223.35L275.457 208.758C275.577 208.668 275.757 208.698 275.848 208.819Z" fill="white"/>
<path d="M285.626 259.573C285.235 262.611 286.889 264.326 289.507 270.463C289.778 271.095 290.018 271.697 290.259 272.239C290.319 272.419 290.409 272.6 290.47 272.75C292.094 276.631 292.876 278.797 292.937 280.301C293.057 283.581 291.282 288.906 280.09 295.825L258.519 295.705H257.917L243.657 295.615C241.37 291.854 239.174 286.86 238.482 280.753C237.941 275.819 237.158 268.929 241.16 264.657C242.784 262.942 244.379 262.461 246.124 262.13C246.304 262.1 246.515 262.04 246.725 262.009C248.771 261.618 250.967 261.257 253.555 259.151C257.255 256.113 260.535 250.427 259.662 245.132C258.669 239.114 253.073 238.513 252.803 232.616C252.682 230.33 253.434 227.953 254.698 226.027C254.788 225.847 254.909 225.696 255.029 225.516C255.631 224.673 256.353 223.951 257.135 223.35C260.023 221.184 261.678 222.688 265.8 220.973C267.334 220.341 268.898 219.378 270.312 218.175C270.463 218.055 270.613 217.934 270.734 217.784C273.321 215.467 275.337 212.338 275.638 209.029C276.029 204.787 273.321 203.945 273.983 200.094C274.344 198.078 275.427 196.213 276.961 194.708C277.112 194.558 277.232 194.438 277.382 194.317C279.338 192.512 281.865 191.219 284.422 190.707C284.844 190.617 287.401 190.135 290.079 190.587C290.259 190.617 290.44 190.647 290.65 190.677C292.335 191.038 293.99 191.79 295.163 193.234C298.743 197.627 295.404 205.449 294.561 207.404C292.726 211.737 291.041 211.947 290.379 215.618C290.259 216.28 289.326 222.176 292.756 225.757C294.14 227.201 295.464 227.471 296.818 227.893C297.028 227.953 297.239 228.043 297.48 228.103C298.322 228.404 299.164 228.855 300.067 229.788C302.113 231.894 303.256 235.203 302.895 238.152C302.534 241.16 300.789 242.634 292.816 250.637C292.756 250.697 292.666 250.788 292.606 250.848C292.154 251.299 291.733 251.72 291.372 252.111C286.559 256.895 285.836 257.888 285.626 259.573Z" fill="url(#paint13_linear_35228_46106)"/>
<path opacity="0.5" d="M297.51 228.073C297.48 228.133 297.449 228.193 297.359 228.224L278.345 237.821C276.329 244.259 274.254 250.637 272.238 256.684C272.238 256.745 272.208 256.775 272.208 256.835C270.914 260.716 269.651 264.446 268.447 267.966L292.485 250.577C292.606 250.487 292.756 250.517 292.846 250.607C292.786 250.667 292.696 250.758 292.636 250.818C292.184 251.269 291.763 251.69 291.402 252.081L268.146 268.929C265.8 275.758 263.664 281.745 262.009 286.318L290.289 272.299C290.289 272.299 290.289 272.299 290.319 272.299C290.379 272.479 290.47 272.66 290.53 272.81L261.738 287.101C260.053 291.794 258.88 294.923 258.579 295.735C258.519 295.856 258.519 295.946 258.489 295.946C258.459 296.066 258.338 296.126 258.218 296.126C258.188 296.126 258.158 296.126 258.128 296.096C257.977 296.036 257.917 295.886 257.947 295.735C257.947 295.735 257.947 295.735 257.947 295.705C258.098 295.314 260.144 289.808 263.182 281.324L246.214 262.25C246.184 262.22 246.154 262.16 246.154 262.1C246.334 262.07 246.545 262.009 246.756 261.979L263.393 280.662C265.739 274.074 268.658 265.74 271.696 256.654L254.668 225.967C254.758 225.787 254.879 225.636 254.999 225.456C255.029 225.486 255.059 225.516 255.089 225.546L271.877 255.932C274.554 247.899 277.322 239.295 279.91 230.751L270.282 218.145L270.252 218.115C270.162 217.995 270.192 217.814 270.312 217.724C270.433 217.633 270.613 217.664 270.703 217.784L280.09 230.089C282.768 221.214 285.205 212.399 287.13 204.426L276.931 194.678C277.082 194.528 277.202 194.408 277.352 194.287L287.311 203.794C288.454 199.041 289.387 194.558 290.048 190.557C290.229 190.587 290.409 190.617 290.62 190.647C289.928 194.799 288.935 199.432 287.762 204.396C287.762 204.426 287.762 204.426 287.762 204.456C285.806 212.639 283.279 221.665 280.541 230.751C280.541 230.811 280.511 230.841 280.481 230.901C279.849 232.977 279.218 235.023 278.586 237.099L296.848 227.893C297.058 227.923 297.269 227.983 297.51 228.073Z" fill="white"/>
<path d="M287.22 294.231H88.6867C88.1451 294.231 87.6938 294.682 87.6938 295.224V297.029C87.6938 297.57 88.1451 298.022 88.6867 298.022H287.22C287.762 298.022 288.213 297.57 288.213 297.029V295.224C288.213 294.682 287.762 294.231 287.22 294.231Z" fill="url(#paint14_linear_35228_46106)"/>
<mask id="mask4_35228_46106" style="mask-type:luminance" maskUnits="userSpaceOnUse" x="270" y="131" width="67" height="50">
<path d="M270.924 155.243L288.901 159.593C289.288 159.689 289.626 159.979 289.771 160.317L297.455 178.971C297.841 179.841 299.001 179.986 299.581 179.261L307.989 168.388C308.376 167.856 309.101 167.759 309.681 168.098L327.271 179.986C327.996 180.469 329.059 180.034 329.204 179.164L336.984 132.434C337.129 131.516 336.259 130.743 335.389 131.081L270.924 152.972C269.668 153.262 269.716 154.953 270.924 155.243Z" fill="white"/>
</mask>
<g mask="url(#mask4_35228_46106)">
<path d="M266.816 154.229L289.529 159.738C290.544 159.158 337.274 130.356 337.274 130.356L266.816 154.229Z" fill="url(#paint15_linear_35228_46106)"/>
</g>
<mask id="mask5_35228_46106" style="mask-type:luminance" maskUnits="userSpaceOnUse" x="270" y="131" width="67" height="50">
<path d="M270.924 155.243L288.901 159.593C289.288 159.689 289.626 159.979 289.771 160.317L297.455 178.971C297.841 179.841 299.001 179.986 299.581 179.261L307.989 168.388C308.376 167.856 309.101 167.759 309.681 168.098L327.271 179.986C327.996 180.469 329.059 180.034 329.204 179.164L336.984 132.434C337.129 131.516 336.259 130.743 335.389 131.081L270.924 152.972C269.668 153.262 269.716 154.953 270.924 155.243Z" fill="white"/>
</mask>
<g mask="url(#mask5_35228_46106)">
<path d="M289.529 159.738C290.544 159.158 337.274 130.356 337.274 130.356L298.276 180.952L289.529 159.738Z" fill="url(#paint16_linear_35228_46106)"/>
</g>
<mask id="mask6_35228_46106" style="mask-type:luminance" maskUnits="userSpaceOnUse" x="270" y="131" width="67" height="50">
<path d="M270.924 155.243L288.901 159.593C289.288 159.689 289.626 159.979 289.771 160.317L297.455 178.971C297.841 179.841 299.001 179.986 299.581 179.261L307.989 168.388C308.376 167.856 309.101 167.759 309.681 168.098L327.271 179.986C327.996 180.469 329.059 180.034 329.204 179.164L336.984 132.434C337.129 131.516 336.259 130.743 335.389 131.081L270.924 152.972C269.668 153.262 269.716 154.953 270.924 155.243Z" fill="white"/>
</mask>
<g mask="url(#mask6_35228_46106)">
<path d="M306.733 166.213L337.274 130.356L298.276 180.952L306.733 166.213Z" fill="url(#paint17_linear_35228_46106)"/>
</g>
<mask id="mask7_35228_46106" style="mask-type:luminance" maskUnits="userSpaceOnUse" x="270" y="131" width="67" height="50">
<path d="M270.924 155.243L288.901 159.593C289.288 159.689 289.626 159.979 289.771 160.317L297.455 178.971C297.841 179.841 299.001 179.986 299.581 179.261L307.989 168.388C308.376 167.856 309.101 167.759 309.681 168.098L327.271 179.986C327.996 180.469 329.059 180.034 329.204 179.164L336.984 132.434C337.129 131.516 336.259 130.743 335.389 131.081L270.924 152.972C269.668 153.262 269.716 154.953 270.924 155.243Z" fill="white"/>
</mask>
<g mask="url(#mask7_35228_46106)">
<path d="M328.817 181L337.274 130.356L306.733 166.116L328.817 181Z" fill="url(#paint18_linear_35228_46106)"/>
</g>
<defs>
<linearGradient id="paint0_linear_35228_46106" x1="339.138" y1="320.198" x2="36.2115" y2="64.6769" gradientUnits="userSpaceOnUse">
<stop stop-color="#0281CE" stop-opacity="0.5"/>
<stop offset="1" stop-color="#C9EAFF" stop-opacity="0.5"/>
</linearGradient>
<linearGradient id="paint1_linear_35228_46106" x1="86.8826" y1="159.689" x2="43.0181" y2="159.689" gradientUnits="userSpaceOnUse">
<stop stop-color="#0C63AA"/>
<stop offset="1" stop-color="#003A79"/>
</linearGradient>
<linearGradient id="paint2_linear_35228_46106" x1="86.8826" y1="166.293" x2="57.1582" y2="166.293" gradientUnits="userSpaceOnUse">
<stop stop-color="#0C63AA"/>
<stop offset="1" stop-color="#003A79"/>
</linearGradient>
<linearGradient id="paint3_linear_35228_46106" x1="81.9735" y1="172.388" x2="86.2595" y2="176.004" gradientUnits="userSpaceOnUse">
<stop stop-color="#1A367C"/>
<stop offset="1" stop-color="#365BDC"/>
</linearGradient>
<linearGradient id="paint4_linear_35228_46106" x1="86.8826" y1="166.308" x2="67.8687" y2="166.308" gradientUnits="userSpaceOnUse">
<stop stop-color="#0C63AA"/>
<stop offset="1" stop-color="#003A79"/>
</linearGradient>
<linearGradient id="paint5_linear_35228_46106" x1="156.979" y1="232.56" x2="82.9917" y2="232.56" gradientUnits="userSpaceOnUse">
<stop stop-color="#0281CE"/>
<stop offset="1" stop-color="#0A66AE"/>
</linearGradient>
<linearGradient id="paint6_linear_35228_46106" x1="155.965" y1="205.646" x2="102.001" y2="205.646" gradientUnits="userSpaceOnUse">
<stop stop-color="#0281CE"/>
<stop offset="1" stop-color="#0A66AE"/>
</linearGradient>
<linearGradient id="paint7_linear_35228_46106" x1="248.621" y1="186.616" x2="127.287" y2="186.616" gradientUnits="userSpaceOnUse">
<stop stop-color="#0C63AA"/>
<stop offset="1" stop-color="#003A79"/>
</linearGradient>
<linearGradient id="paint8_linear_35228_46106" x1="224.341" y1="171.693" x2="153.34" y2="171.693" gradientUnits="userSpaceOnUse">
<stop stop-color="#0281CE"/>
<stop offset="1" stop-color="#0771C7"/>
</linearGradient>
<linearGradient id="paint9_linear_35228_46106" x1="207.524" y1="282.979" x2="168.383" y2="282.979" gradientUnits="userSpaceOnUse">
<stop stop-color="#0281CE"/>
<stop offset="1" stop-color="#0771C7"/>
</linearGradient>
<linearGradient id="paint10_linear_35228_46106" x1="220.643" y1="223.922" x2="157.011" y2="223.922" gradientUnits="userSpaceOnUse">
<stop stop-color="#0281CE"/>
<stop offset="1" stop-color="#0771C7"/>
</linearGradient>
<linearGradient id="paint11_linear_35228_46106" x1="206.952" y1="232.526" x2="170.759" y2="232.526" gradientUnits="userSpaceOnUse">
<stop stop-color="#0281CE"/>
<stop offset="1" stop-color="#0771C7"/>
</linearGradient>
<linearGradient id="paint12_linear_35228_46106" x1="280.667" y1="194.414" x2="223.092" y2="194.414" gradientUnits="userSpaceOnUse">
<stop stop-color="#0281CE"/>
<stop offset="1" stop-color="#0A66AE"/>
</linearGradient>
<linearGradient id="paint13_linear_35228_46106" x1="302.961" y1="243.111" x2="238.036" y2="243.111" gradientUnits="userSpaceOnUse">
<stop stop-color="#0281CE"/>
<stop offset="1" stop-color="#0A66AE"/>
</linearGradient>
<linearGradient id="paint14_linear_35228_46106" x1="288.213" y1="296.126" x2="87.6938" y2="296.126" gradientUnits="userSpaceOnUse">
<stop stop-color="#0C63AA"/>
<stop offset="1" stop-color="#003A79"/>
</linearGradient>
<linearGradient id="paint15_linear_35228_46106" x1="337.274" y1="145.047" x2="266.816" y2="145.047" gradientUnits="userSpaceOnUse">
<stop stop-color="#0C63AA"/>
<stop offset="1" stop-color="#003A79"/>
</linearGradient>
<linearGradient id="paint16_linear_35228_46106" x1="337.274" y1="155.654" x2="289.529" y2="155.654" gradientUnits="userSpaceOnUse">
<stop stop-color="#0C63AA"/>
<stop offset="1" stop-color="#003A79"/>
</linearGradient>
<linearGradient id="paint17_linear_35228_46106" x1="329.389" y1="165.443" x2="336.273" y2="171.252" gradientUnits="userSpaceOnUse">
<stop stop-color="#1A367C"/>
<stop offset="1" stop-color="#365BDC"/>
</linearGradient>
<linearGradient id="paint18_linear_35228_46106" x1="337.274" y1="155.678" x2="306.733" y2="155.678" gradientUnits="userSpaceOnUse">
<stop stop-color="#0C63AA"/>
<stop offset="1" stop-color="#003A79"/>
</linearGradient>
</defs>
</svg>
