<svg width="376" height="376" viewBox="0 0 376 376" fill="none" xmlns="http://www.w3.org/2000/svg">
<path d="M257.749 59H119.251C116.041 59 113.057 60.7181 111.453 63.5066L42.2034 183.493C40.5989 186.282 40.5989 189.718 42.2034 192.507L111.453 312.493C113.057 315.282 116.041 317 119.251 317H257.749C260.959 317 263.943 315.282 265.547 312.493L334.797 192.507C336.401 189.718 336.401 186.282 334.797 183.493L265.547 63.5066C263.943 60.7181 260.959 59 257.749 59Z" fill="url(#paint0_linear_35228_46343)"/>
<path d="M65.5428 69.5429C67.7966 69.5429 69.6237 67.7158 69.6237 65.462C69.6237 63.2082 67.7966 61.3811 65.5428 61.3811C63.289 61.3811 61.4619 63.2082 61.4619 65.462C61.4619 67.7158 63.289 69.5429 65.5428 69.5429Z" fill="#AFAEB4"/>
<path d="M46.3431 59.9431C48.5969 59.9431 50.424 58.116 50.424 55.8622C50.424 53.6083 48.5969 51.7812 46.3431 51.7812C44.0893 51.7812 42.2622 53.6083 42.2622 55.8622C42.2622 58.116 44.0893 59.9431 46.3431 59.9431Z" fill="#AFAEB4"/>
<path d="M170.677 363C172.561 363 174.089 361.472 174.089 359.588C174.089 357.704 172.561 356.176 170.677 356.176C168.793 356.176 167.265 357.704 167.265 359.588C167.265 361.472 168.793 363 170.677 363Z" fill="#AFAEB4"/>
<path d="M322.34 350.958C324.594 350.958 326.421 349.131 326.421 346.877C326.421 344.623 324.594 342.796 322.34 342.796C320.086 342.796 318.259 344.623 318.259 346.877C318.259 349.131 320.086 350.958 322.34 350.958Z" fill="#AFAEB4"/>
<path d="M350.17 299.746C352.424 299.746 354.251 297.919 354.251 295.665C354.251 293.411 352.424 291.584 350.17 291.584C347.916 291.584 346.089 293.411 346.089 295.665C346.089 297.919 347.916 299.746 350.17 299.746Z" fill="#AFAEB4"/>
<path d="M42.5926 299.311C44.8464 299.311 46.6735 297.484 46.6735 295.23C46.6735 292.977 44.8464 291.149 42.5926 291.149C40.3388 291.149 38.5117 292.977 38.5117 295.23C38.5117 297.484 40.3388 299.311 42.5926 299.311Z" fill="#AFAEB4"/>
<path d="M20.0809 326.339C22.3347 326.339 24.1618 324.511 24.1618 322.258C24.1618 320.004 22.3347 318.177 20.0809 318.177C17.8271 318.177 16 320.004 16 322.258C16 324.511 17.8271 326.339 20.0809 326.339Z" fill="#AFAEB4"/>
<path d="M46.6404 338.314C50.2428 338.314 53.1632 335.394 53.1632 331.791C53.1632 328.189 50.2428 325.269 46.6404 325.269C43.038 325.269 40.1177 328.189 40.1177 331.791C40.1177 335.394 43.038 338.314 46.6404 338.314Z" fill="#AFAEB4"/>
<path d="M355.919 48.3354C358.173 48.3354 360 46.5083 360 44.2545C360 42.0007 358.173 40.1736 355.919 40.1736C353.665 40.1736 351.838 42.0007 351.838 44.2545C351.838 46.5083 353.665 48.3354 355.919 48.3354Z" fill="#AFAEB4"/>
<path d="M337.369 76.233C341.064 76.233 344.059 73.2378 344.059 69.543C344.059 65.8482 341.064 62.853 337.369 62.853C333.674 62.853 330.679 65.8482 330.679 69.543C330.679 73.2378 333.674 76.233 337.369 76.233Z" fill="#AFAEB4"/>
<path d="M43.9344 102.959C46.1882 102.959 48.0153 101.132 48.0153 98.8785C48.0153 96.6247 46.1882 94.7976 43.9344 94.7976C41.6806 94.7976 39.8535 96.6247 39.8535 98.8785C39.8535 101.132 41.6806 102.959 43.9344 102.959Z" fill="#AFAEB4"/>
<path d="M312.081 36.6284C314.335 36.6284 316.162 34.8013 316.162 32.5475C316.162 30.2936 314.335 28.4666 312.081 28.4666C309.827 28.4666 308 30.2936 308 32.5475C308 34.8013 309.827 36.6284 312.081 36.6284Z" fill="#AFAEB4"/>
<path d="M120.133 32.2462C123.791 32.2462 126.756 29.2809 126.756 25.6231C126.756 21.9653 123.791 19 120.133 19C116.476 19 113.51 21.9653 113.51 25.6231C113.51 29.2809 116.476 32.2462 120.133 32.2462Z" fill="#AFAEB4"/>
<path d="M350.17 328.881C353.827 328.881 356.793 325.916 356.793 322.258C356.793 318.6 353.827 315.635 350.17 315.635C346.512 315.635 343.546 318.6 343.546 322.258C343.546 325.916 346.512 328.881 350.17 328.881Z" fill="#AFAEB4"/>
<path d="M221.253 29.0015C223.119 29.0015 224.632 27.4889 224.632 25.6231C224.632 23.7572 223.119 22.2446 221.253 22.2446C219.388 22.2446 217.875 23.7572 217.875 25.6231C217.875 27.4889 219.388 29.0015 221.253 29.0015Z" fill="#AFAEB4"/>
<path d="M167.022 74.5731C167.022 68.7436 171.766 64 177.595 64C181.139 64 184.282 65.7717 186.225 68.4007C186.739 68.2293 187.254 68.1721 187.825 68.1721C190.854 68.1721 193.369 70.6297 193.369 73.7159C193.369 74.0588 193.312 74.4017 193.255 74.6875C197.198 75.3161 200.17 78.7453 200.17 82.8602C200.17 87.4324 196.455 91.1473 191.883 91.1473H167.022C162.45 91.1473 158.735 87.4324 158.735 82.8602C158.735 78.288 162.45 74.5731 167.022 74.5731Z" fill="#88868B"/>
<path d="M185.086 112.623C186.625 109.95 190.482 109.95 192.021 112.623L274.559 256.082C276.093 258.749 274.168 262.077 271.091 262.077H106.015C102.939 262.077 101.014 258.749 102.548 256.082L185.086 112.623Z" fill="url(#paint1_linear_35228_46343)"/>
<path d="M185.493 125.914C186.826 123.513 190.278 123.513 191.612 125.914L259.359 247.858C260.655 250.191 258.968 253.058 256.299 253.058H120.805C118.137 253.058 116.45 250.191 117.746 247.858L185.493 125.914Z" stroke="white"/>
<path d="M194.752 166.233C195.317 166.233 195.77 166.701 195.752 167.265L194.23 215.482C194.213 216.021 193.77 216.45 193.23 216.45H183.477C182.938 216.45 182.495 216.023 182.477 215.484L180.86 167.267C180.841 166.702 181.294 166.233 181.86 166.233H194.752ZM188.652 240.779C186.142 240.779 184.062 239.982 182.411 238.387C180.826 236.724 180.033 234.679 180.033 232.253C180.033 229.827 180.826 227.817 182.411 226.223C184.062 224.56 186.142 223.728 188.652 223.728C191.095 223.728 193.11 224.56 194.695 226.223C196.28 227.817 197.072 229.827 197.072 232.253C197.072 234.679 196.28 236.724 194.695 238.387C193.11 239.982 191.095 240.779 188.652 240.779Z" fill="white"/>
<path d="M104.864 206C104.431 206 104.047 206.279 103.913 206.691L78.6834 284.371C78.4736 285.017 78.9552 285.679 79.6345 285.679H134.088C134.767 285.679 135.249 285.017 135.039 284.371L109.809 206.691C109.675 206.279 109.291 206 108.858 206H104.864Z" fill="url(#paint2_linear_35228_46343)"/>
<rect x="66" y="281.593" width="81.7226" height="8.17226" rx="1" fill="url(#paint3_linear_35228_46343)"/>
<mask id="mask0_35228_46343" style="mask-type:alpha" maskUnits="userSpaceOnUse" x="78" y="206" width="58" height="80">
<path d="M104.864 206C104.431 206 104.047 206.279 103.913 206.691L78.6834 284.371C78.4736 285.017 78.9552 285.679 79.6345 285.679H134.088C134.767 285.679 135.249 285.017 135.039 284.371L109.809 206.691C109.675 206.279 109.291 206 108.858 206H104.864Z" fill="#D9D9D9"/>
</mask>
<g mask="url(#mask0_35228_46343)">
<rect x="65.9995" y="261.163" width="81.7226" height="8.17226" rx="1" fill="white"/>
<rect x="65.9995" y="240.732" width="81.7226" height="8.17226" rx="1" fill="white"/>
<rect x="65.9995" y="220.302" width="81.7226" height="8.17226" rx="1" fill="white"/>
</g>
<path d="M224.911 288.597C224.716 288.21 224.793 287.741 225.102 287.437L281.408 231.835C281.891 231.358 282.7 231.491 283.005 232.099L306.647 279.218C306.952 279.825 306.575 280.553 305.904 280.655L227.672 292.559C227.243 292.624 226.822 292.406 226.627 292.019L224.911 288.597Z" fill="url(#paint4_linear_35228_46343)"/>
<rect width="79.2433" height="7.92433" rx="1" transform="matrix(0.448471 0.893797 0.893797 -0.448471 273.516 222.021)" fill="url(#paint5_linear_35228_46343)"/>
<mask id="mask1_35228_46343" style="mask-type:alpha" maskUnits="userSpaceOnUse" x="224" y="231" width="83" height="62">
<path d="M224.911 288.597C224.716 288.21 224.793 287.741 225.102 287.437L281.408 231.835C281.891 231.358 282.7 231.491 283.005 232.099L306.647 279.218C306.952 279.825 306.575 280.553 305.904 280.655L227.672 292.559C227.243 292.624 226.822 292.406 226.627 292.019L224.911 288.597Z" fill="#D9D9D9"/>
</mask>
<g mask="url(#mask1_35228_46343)">
<rect width="79.2433" height="7.92433" rx="1" transform="matrix(0.448471 0.893797 0.893797 -0.448471 255.809 230.906)" fill="white"/>
<rect width="79.2433" height="7.92433" rx="1" transform="matrix(0.448471 0.893797 0.893797 -0.448471 238.102 239.79)" fill="white"/>
<rect width="79.2433" height="7.92433" rx="1" transform="matrix(0.448471 0.893797 0.893797 -0.448471 220.395 248.675)" fill="white"/>
</g>
<path d="M278.593 136.377C278.593 128.427 272.101 122 264.07 122C259.192 122 254.877 124.378 252.25 128.018C251.537 127.795 250.787 127.684 250.036 127.684C245.833 127.684 242.419 131.064 242.419 135.225C242.419 135.671 242.456 136.116 242.531 136.562C237.128 137.454 233 142.097 233 147.707C233 153.948 238.103 159 244.408 159H278.593C284.897 159 290 153.948 290 147.707C290 141.466 284.859 136.377 278.593 136.377Z" fill="#88868B"/>
<path d="M143 131.846C143 127.346 139.344 123.692 134.843 123.692C134.673 123.692 134.47 123.692 134.301 123.726C133.759 120.613 131.018 118.244 127.734 118.244C127.328 118.244 126.922 118.278 126.55 118.346C125.399 115.233 122.386 113 118.866 113C114.77 113 111.386 116.011 110.776 119.936C110.472 119.868 110.167 119.801 109.829 119.801C107.696 119.801 105.936 121.526 105.936 123.692V123.726C105.665 123.692 105.428 123.692 105.157 123.692C100.656 123.692 97 127.346 97 131.846C97 136.346 100.656 140 105.157 140H135.147C139.514 139.831 143 136.244 143 131.846Z" fill="#88868B"/>
<path d="M257.439 289.575H58.5988C58.0565 289.575 57.6045 290.029 57.6045 290.573V292.385C57.6045 292.929 58.0565 293.383 58.5988 293.383H257.439C257.981 293.383 258.433 292.929 258.433 292.385V290.573C258.433 290.029 257.981 289.575 257.439 289.575Z" fill="#5C5B5F"/>
<path d="M319.065 289.575H262.523C262.369 289.575 262.24 290.029 262.24 290.573V292.385C262.24 292.929 262.369 293.383 262.523 293.383H319.065C319.219 293.383 319.348 292.929 319.348 292.385V290.573C319.348 290.029 319.219 289.575 319.065 289.575Z" fill="#5C5B5F"/>
<mask id="mask2_35228_46343" style="mask-type:luminance" maskUnits="userSpaceOnUse" x="46" y="138" width="42" height="31">
<path d="M46.5754 153.093L57.7672 155.801C58.0079 155.861 58.2185 156.042 58.3087 156.252L63.0923 167.865C63.333 168.407 64.0551 168.497 64.4161 168.046L69.6509 161.276C69.8916 160.945 70.3429 160.885 70.7039 161.096L81.655 168.497C82.1063 168.798 82.7682 168.527 82.8584 167.985L87.7022 138.893C87.7925 138.321 87.2509 137.84 86.7094 138.05L46.5754 151.679C45.7932 151.86 45.8233 152.913 46.5754 153.093Z" fill="white"/>
</mask>
<g mask="url(#mask2_35228_46343)">
<path d="M44.0181 152.461L58.1582 155.891C58.79 155.53 87.8826 137.599 87.8826 137.599L44.0181 152.461Z" fill="url(#paint6_linear_35228_46343)"/>
</g>
<mask id="mask3_35228_46343" style="mask-type:luminance" maskUnits="userSpaceOnUse" x="46" y="138" width="42" height="31">
<path d="M46.5754 153.093L57.7672 155.801C58.0079 155.861 58.2185 156.042 58.3087 156.252L63.0923 167.865C63.333 168.407 64.0551 168.497 64.4161 168.046L69.6509 161.276C69.8916 160.945 70.3429 160.885 70.7039 161.096L81.655 168.497C82.1063 168.798 82.7682 168.527 82.8584 167.985L87.7022 138.893C87.7925 138.321 87.2509 137.84 86.7094 138.05L46.5754 151.679C45.7932 151.86 45.8233 152.913 46.5754 153.093Z" fill="white"/>
</mask>
<g mask="url(#mask3_35228_46343)">
<path d="M58.1582 155.891C58.79 155.53 87.8826 137.599 87.8826 137.599L63.6037 169.099L58.1582 155.891Z" fill="url(#paint7_linear_35228_46343)"/>
</g>
<mask id="mask4_35228_46343" style="mask-type:luminance" maskUnits="userSpaceOnUse" x="46" y="138" width="42" height="31">
<path d="M46.5754 153.093L57.7672 155.801C58.0079 155.861 58.2185 156.042 58.3087 156.252L63.0923 167.865C63.333 168.407 64.0551 168.497 64.4161 168.046L69.6509 161.276C69.8916 160.945 70.3429 160.885 70.7039 161.096L81.655 168.497C82.1063 168.798 82.7682 168.527 82.8584 167.985L87.7022 138.893C87.7925 138.321 87.2509 137.84 86.7094 138.05L46.5754 151.679C45.7932 151.86 45.8233 152.913 46.5754 153.093Z" fill="white"/>
</mask>
<g mask="url(#mask4_35228_46343)">
<path d="M68.869 159.922L87.8829 137.599L63.604 169.099L68.869 159.922Z" fill="#1D2432"/>
</g>
<mask id="mask5_35228_46343" style="mask-type:luminance" maskUnits="userSpaceOnUse" x="46" y="138" width="42" height="31">
<path d="M46.5754 153.093L57.7672 155.801C58.0079 155.861 58.2185 156.042 58.3087 156.252L63.0923 167.865C63.333 168.407 64.0551 168.497 64.4161 168.046L69.6509 161.276C69.8916 160.945 70.3429 160.885 70.7039 161.096L81.655 168.497C82.1063 168.798 82.7682 168.527 82.8584 167.985L87.7022 138.893C87.7925 138.321 87.2509 137.84 86.7094 138.05L46.5754 151.679C45.7932 151.86 45.8233 152.913 46.5754 153.093Z" fill="white"/>
</mask>
<g mask="url(#mask5_35228_46343)">
<path d="M82.6177 169.129L87.8826 137.599L68.8687 159.862L82.6177 169.129Z" fill="url(#paint8_linear_35228_46343)"/>
</g>
<mask id="mask6_35228_46343" style="mask-type:luminance" maskUnits="userSpaceOnUse" x="236" y="62" width="68" height="50">
<path d="M236.964 86.5568L255.106 90.9493C255.497 91.0395 255.828 91.3103 255.978 91.7014L263.74 110.535C264.101 111.437 265.304 111.588 265.876 110.836L274.36 99.8245C274.751 99.313 275.503 99.1927 276.045 99.5537L293.825 111.558C294.578 112.069 295.6 111.618 295.751 110.715L303.633 63.4512C303.784 62.5186 302.881 61.7664 302.009 62.0673L236.844 84.18C235.67 84.5411 235.73 86.2559 236.964 86.5568Z" fill="white"/>
</mask>
<g mask="url(#mask6_35228_46343)">
<path d="M232.751 85.5338L255.707 91.0996C256.73 90.528 303.994 61.3752 303.994 61.3752L232.751 85.5338Z" fill="url(#paint9_linear_35228_46343)"/>
</g>
<mask id="mask7_35228_46343" style="mask-type:luminance" maskUnits="userSpaceOnUse" x="236" y="62" width="68" height="50">
<path d="M236.964 86.5568L255.106 90.9493C255.497 91.0395 255.828 91.3103 255.978 91.7014L263.74 110.535C264.101 111.437 265.304 111.588 265.876 110.836L274.36 99.8245C274.751 99.313 275.503 99.1927 276.045 99.5537L293.825 111.558C294.578 112.069 295.6 111.618 295.751 110.715L303.633 63.4512C303.784 62.5186 302.881 61.7664 302.009 62.0673L236.844 84.18C235.67 84.5411 235.73 86.2559 236.964 86.5568Z" fill="white"/>
</mask>
<g mask="url(#mask7_35228_46343)">
<path d="M255.736 91.0996C256.759 90.528 304.023 61.3752 304.023 61.3752L264.581 112.52L255.736 91.0996Z" fill="url(#paint10_linear_35228_46343)"/>
</g>
<mask id="mask8_35228_46343" style="mask-type:luminance" maskUnits="userSpaceOnUse" x="236" y="62" width="68" height="50">
<path d="M236.964 86.5568L255.106 90.9493C255.497 91.0395 255.828 91.3103 255.978 91.7014L263.74 110.535C264.101 111.437 265.304 111.588 265.876 110.836L274.36 99.8245C274.751 99.313 275.503 99.1927 276.045 99.5537L293.825 111.558C294.578 112.069 295.6 111.618 295.751 110.715L303.633 63.4512C303.784 62.5186 302.881 61.7664 302.009 62.0673L236.844 84.18C235.67 84.5411 235.73 86.2559 236.964 86.5568Z" fill="white"/>
</mask>
<g mask="url(#mask8_35228_46343)">
<path d="M273.126 97.6281L303.994 61.3752L264.552 112.52L273.126 97.6281Z" fill="#1D2432"/>
</g>
<mask id="mask9_35228_46343" style="mask-type:luminance" maskUnits="userSpaceOnUse" x="236" y="62" width="68" height="50">
<path d="M236.964 86.5568L255.106 90.9493C255.497 91.0395 255.828 91.3103 255.978 91.7014L263.74 110.535C264.101 111.437 265.304 111.588 265.876 110.836L274.36 99.8245C274.751 99.313 275.503 99.1927 276.045 99.5537L293.825 111.558C294.578 112.069 295.6 111.618 295.751 110.715L303.633 63.4512C303.784 62.5186 302.881 61.7664 302.009 62.0673L236.844 84.18C235.67 84.5411 235.73 86.2559 236.964 86.5568Z" fill="white"/>
</mask>
<g mask="url(#mask9_35228_46343)">
<path d="M295.449 112.611L303.993 61.3752L273.125 97.5379L295.449 112.611Z" fill="url(#paint11_linear_35228_46343)"/>
</g>
<defs>
<linearGradient id="paint0_linear_35228_46343" x1="261.691" y1="315.465" x2="115.344" y2="60.921" gradientUnits="userSpaceOnUse">
<stop stop-color="#A9AFC9" stop-opacity="0.75"/>
<stop offset="1" stop-color="#F5F8FF" stop-opacity="0.5"/>
</linearGradient>
<linearGradient id="paint1_linear_35228_46343" x1="184" y1="188" x2="116.025" y2="129.688" gradientUnits="userSpaceOnUse">
<stop stop-color="#A8ADB8"/>
<stop offset="1" stop-color="#D0D4DE"/>
</linearGradient>
<linearGradient id="paint2_linear_35228_46343" x1="107.08" y1="385.245" x2="103.317" y2="154.604" gradientUnits="userSpaceOnUse">
<stop stop-color="#3A3E47"/>
<stop offset="0.9986" stop-color="#7F8797"/>
</linearGradient>
<linearGradient id="paint3_linear_35228_46343" x1="107.174" y1="299.977" x2="107.146" y2="276.316" gradientUnits="userSpaceOnUse">
<stop stop-color="#3A3E47"/>
<stop offset="0.9986" stop-color="#7F8797"/>
</linearGradient>
<linearGradient id="paint4_linear_35228_46343" x1="381.213" y1="212.55" x2="179.684" y2="309.587" gradientUnits="userSpaceOnUse">
<stop stop-color="#3A3E47"/>
<stop offset="0.9986" stop-color="#7F8797"/>
</linearGradient>
<linearGradient id="paint5_linear_35228_46343" x1="39.9246" y1="17.8264" x2="39.8978" y2="-5.1175" gradientUnits="userSpaceOnUse">
<stop stop-color="#3A3E47"/>
<stop offset="0.9986" stop-color="#7F8797"/>
</linearGradient>
<linearGradient id="paint6_linear_35228_46343" x1="66.118" y1="178.748" x2="65.8594" y2="125.787" gradientUnits="userSpaceOnUse">
<stop stop-color="#3A3E47"/>
<stop offset="0.9986" stop-color="#7F8797"/>
</linearGradient>
<linearGradient id="paint7_linear_35228_46343" x1="65.5" y1="156.056" x2="72.539" y2="117.187" gradientUnits="userSpaceOnUse">
<stop stop-color="#3A3E47"/>
<stop offset="0.9986" stop-color="#7F8797"/>
</linearGradient>
<linearGradient id="paint8_linear_35228_46343" x1="78.4483" y1="208.527" x2="76.676" y2="117.272" gradientUnits="userSpaceOnUse">
<stop stop-color="#3A3E47"/>
<stop offset="0.9986" stop-color="#7F8797"/>
</linearGradient>
<linearGradient id="paint9_linear_35228_46343" x1="268.645" y1="128.243" x2="268.224" y2="42.1813" gradientUnits="userSpaceOnUse">
<stop stop-color="#3A3E47"/>
<stop offset="0.9986" stop-color="#7F8797"/>
</linearGradient>
<linearGradient id="paint10_linear_35228_46343" x1="271.336" y1="94.8334" x2="279.063" y2="28.2704" gradientUnits="userSpaceOnUse">
<stop stop-color="#3A3E47"/>
<stop offset="0.9986" stop-color="#7F8797"/>
</linearGradient>
<linearGradient id="paint11_linear_35228_46343" x1="288.677" y1="176.633" x2="285.794" y2="28.3434" gradientUnits="userSpaceOnUse">
<stop stop-color="#3A3E47"/>
<stop offset="0.9986" stop-color="#7F8797"/>
</linearGradient>
</defs>
</svg>
