<svg width="376" height="376" viewBox="0 0 376 376" fill="none" xmlns="http://www.w3.org/2000/svg">
<path d="M257.749 59H119.251C116.041 59 113.057 60.7181 111.453 63.5066L42.2034 183.493C40.5989 186.282 40.5989 189.718 42.2034 192.507L111.453 312.493C113.057 315.282 116.041 317 119.251 317H257.749C260.959 317 263.943 315.282 265.547 312.493L334.797 192.507C336.401 189.718 336.401 186.282 334.797 183.493L265.547 63.5066C263.943 60.7181 260.959 59 257.749 59Z" fill="url(#paint0_linear_35228_46075)"/>
<path d="M46.1417 40.7807C48.3358 40.7807 50.1144 39.002 50.1144 36.8079C50.1144 34.6139 48.3358 32.8352 46.1417 32.8352C43.9476 32.8352 42.1689 34.6139 42.1689 36.8079C42.1689 39.002 43.9476 40.7807 46.1417 40.7807Z" fill="#AFAEB4"/>
<path d="M298.019 335.219C299.854 335.219 301.341 333.732 301.341 331.897C301.341 330.063 299.854 328.576 298.019 328.576C296.185 328.576 294.698 330.063 294.698 331.897C294.698 333.732 296.185 335.219 298.019 335.219Z" fill="#AFAEB4"/>
<path d="M236.117 355.343C237.933 355.343 239.405 353.87 239.405 352.054C239.405 350.238 237.933 348.765 236.117 348.765C234.3 348.765 232.828 350.238 232.828 352.054C232.828 353.87 234.3 355.343 236.117 355.343Z" fill="#AFAEB4"/>
<path d="M337.812 341.113C340.006 341.113 341.784 339.334 341.784 337.14C341.784 334.946 340.006 333.167 337.812 333.167C335.618 333.167 333.839 334.946 333.839 337.14C333.839 339.334 335.618 341.113 337.812 341.113Z" fill="#AFAEB4"/>
<path d="M341.785 252.834C343.979 252.834 345.757 251.055 345.757 248.861C345.757 246.667 343.979 244.888 341.785 244.888C339.591 244.888 337.812 246.667 337.812 248.861C337.812 251.055 339.591 252.834 341.785 252.834Z" fill="#AFAEB4"/>
<path d="M19.9727 248.861C22.1668 248.861 23.9455 247.082 23.9455 244.888C23.9455 242.694 22.1668 240.916 19.9727 240.916C17.7787 240.916 16 242.694 16 244.888C16 247.082 17.7787 248.861 19.9727 248.861Z" fill="#AFAEB4"/>
<path d="M67.1773 360C69.3714 360 71.1501 358.221 71.1501 356.027C71.1501 353.833 69.3714 352.055 67.1773 352.055C64.9832 352.055 63.2046 353.833 63.2046 356.027C63.2046 358.221 64.9832 360 67.1773 360Z" fill="#AFAEB4"/>
<path d="M313.226 69.2087C315.42 69.2087 317.199 67.43 317.199 65.2359C317.199 63.0418 315.42 61.2632 313.226 61.2632C311.032 61.2632 309.253 63.0418 309.253 65.2359C309.253 67.43 311.032 69.2087 313.226 69.2087Z" fill="#AFAEB4"/>
<path d="M353.487 96.334C357.084 96.334 360 93.4181 360 89.8213C360 86.2244 357.084 83.3086 353.487 83.3086C349.89 83.3086 346.975 86.2244 346.975 89.8213C346.975 93.4181 349.89 96.334 353.487 96.334Z" fill="#AFAEB4"/>
<path d="M91.7955 23.9455C93.9896 23.9455 95.7682 22.1668 95.7682 19.9727C95.7682 17.7787 93.9896 16 91.7955 16C89.6014 16 87.8228 17.7787 87.8228 19.9727C87.8228 22.1668 89.6014 23.9455 91.7955 23.9455Z" fill="#AFAEB4"/>
<path d="M337.812 33.1935C340.006 33.1935 341.784 31.4149 341.784 29.2208C341.784 27.0267 340.006 25.248 337.812 25.248C335.618 25.248 333.839 27.0267 333.839 29.2208C333.839 31.4149 335.618 33.1935 337.812 33.1935Z" fill="#AFAEB4"/>
<path d="M67.1775 71.6834C70.7384 71.6834 73.6251 68.7968 73.6251 65.2359C73.6251 61.675 70.7384 58.7883 67.1775 58.7883C63.6167 58.7883 60.73 61.675 60.73 65.2359C60.73 68.7968 63.6167 71.6834 67.1775 71.6834Z" fill="#AFAEB4"/>
<path d="M46.1414 343.588C49.7023 343.588 52.589 340.701 52.589 337.14C52.589 333.579 49.7023 330.693 46.1414 330.693C42.5805 330.693 39.6938 333.579 39.6938 337.14C39.6938 340.701 42.5805 343.588 46.1414 343.588Z" fill="#AFAEB4"/>
<path d="M187.554 188.546V309.07C187.554 309.811 186.724 310.256 186.131 309.841C165.851 296.765 145.007 296.024 138.277 296.024C114.232 296.024 97.1832 305.482 90.4232 309.841C89.8005 310.226 89 309.781 89 309.07V188.546C89 188.219 89.1482 187.953 89.4151 187.775C110.021 174.077 131.458 173.306 138.277 173.306C163.627 173.306 181.209 183.831 187.169 187.775C187.406 187.953 187.554 188.249 187.554 188.546Z" fill="url(#paint1_linear_35228_46075)"/>
<path d="M286.138 188.546V309.07C286.138 309.811 285.308 310.256 284.715 309.841C264.435 296.766 243.591 296.024 236.861 296.024C212.815 296.024 195.767 305.482 189.007 309.841C188.385 310.226 187.584 309.782 187.584 309.07V188.546C187.584 188.22 187.732 187.953 187.999 187.775C208.605 174.077 230.042 173.306 236.861 173.306C262.211 173.306 279.793 183.832 285.753 187.775C285.99 187.953 286.138 188.249 286.138 188.546Z" fill="url(#paint2_linear_35228_46075)"/>
<path d="M108.895 209.122C107.768 209.122 106.701 208.5 106.197 207.432C105.515 205.95 106.137 204.171 107.62 203.489C117.137 199.012 127.722 196.64 138.248 196.64C148.773 196.64 159.358 199.012 168.875 203.489C170.358 204.171 170.98 205.95 170.298 207.432C169.617 208.915 167.838 209.538 166.355 208.856C157.609 204.734 147.884 202.57 138.248 202.57C128.582 202.57 118.857 204.734 110.14 208.856C109.755 209.004 109.31 209.122 108.895 209.122Z" fill="white"/>
<path d="M167.63 246.184C167.215 246.184 166.77 246.095 166.385 245.887C157.638 241.766 147.913 239.602 138.277 239.602C128.612 239.602 118.887 241.766 110.17 245.887C108.687 246.569 106.908 245.947 106.227 244.464C105.545 242.982 106.167 241.203 107.65 240.521C117.167 236.044 127.752 233.672 138.277 233.672C148.803 233.672 159.388 236.044 168.905 240.521C170.388 241.203 171.01 242.982 170.328 244.464C169.824 245.561 168.757 246.184 167.63 246.184Z" fill="white"/>
<path d="M108.895 283.275C107.768 283.275 106.701 282.652 106.197 281.585C105.515 280.103 106.137 278.324 107.62 277.642C117.137 273.165 127.722 270.793 138.248 270.793C148.773 270.793 159.358 273.165 168.875 277.642C170.358 278.324 170.98 280.103 170.298 281.585C169.617 283.068 167.838 283.69 166.355 283.008C157.609 278.887 147.884 276.723 138.248 276.723C128.582 276.723 118.857 278.887 110.14 283.008C109.755 283.186 109.31 283.275 108.895 283.275Z" fill="white"/>
<path d="M207.479 209.122C206.353 209.122 205.285 208.5 204.781 207.432C204.099 205.95 204.722 204.171 206.204 203.489C215.722 199.012 226.307 196.64 236.832 196.64C247.358 196.64 257.942 199.012 267.46 203.489C268.942 204.171 269.565 205.95 268.883 207.432C268.201 208.915 266.422 209.538 264.94 208.856C256.193 204.734 246.468 202.57 236.832 202.57C227.166 202.57 217.441 204.734 208.725 208.856C208.31 209.004 207.894 209.122 207.479 209.122Z" fill="white"/>
<path d="M266.214 246.184C265.799 246.184 265.354 246.095 264.968 245.887C256.222 241.766 246.497 239.602 236.861 239.602C227.195 239.602 217.47 241.766 208.753 245.887C207.271 246.569 205.492 245.947 204.81 244.464C204.128 242.982 204.751 241.203 206.233 240.521C215.751 236.044 226.335 233.672 236.861 233.672C247.386 233.672 257.971 236.044 267.489 240.521C268.971 241.203 269.594 242.982 268.912 244.464C268.408 245.561 267.34 246.184 266.214 246.184Z" fill="white"/>
<path d="M207.479 283.275C206.353 283.275 205.285 282.652 204.781 281.585C204.099 280.103 204.722 278.324 206.204 277.642C215.722 273.135 226.336 270.793 236.832 270.793C247.358 270.793 257.942 273.165 267.46 277.642C268.942 278.324 269.565 280.103 268.883 281.585C268.201 283.068 266.422 283.69 264.94 283.008C256.193 278.887 246.468 276.723 236.832 276.723C227.166 276.723 217.441 278.887 208.725 283.008C208.31 283.186 207.894 283.275 207.479 283.275Z" fill="white"/>
<path d="M187.556 157.853C212.921 157.853 233.483 137.291 233.483 111.927C233.483 86.5621 212.921 66 187.556 66C162.191 66 141.629 86.5621 141.629 111.927C141.629 137.291 162.191 157.853 187.556 157.853Z" fill="url(#paint3_linear_35228_46075)"/>
<path d="M215.605 92.1772C215.215 91.7851 214.75 91.474 214.238 91.2616C213.726 91.0493 213.177 90.9399 212.622 90.9399C212.068 90.9399 211.519 91.0493 211.007 91.2616C210.495 91.474 210.03 91.7851 209.64 92.1772L178.342 123.38L165.192 110.246C164.787 109.856 164.308 109.55 163.784 109.344C163.259 109.138 162.699 109.037 162.135 109.047C161.572 109.057 161.015 109.177 160.498 109.401C159.981 109.624 159.514 109.947 159.122 110.351C158.73 110.755 158.422 111.231 158.215 111.754C158.009 112.276 157.907 112.833 157.917 113.395C157.927 113.956 158.048 114.51 158.272 115.025C158.497 115.539 158.821 116.005 159.227 116.395L175.359 132.457C175.75 132.849 176.214 133.16 176.726 133.372C177.238 133.585 177.787 133.694 178.342 133.694C178.896 133.694 179.445 133.585 179.957 133.372C180.469 133.16 180.934 132.849 181.325 132.457L215.605 98.3258C216.032 97.9341 216.372 97.4587 216.605 96.9296C216.838 96.4005 216.958 95.8291 216.958 95.2515C216.958 94.6738 216.838 94.1025 216.605 93.5733C216.372 93.0442 216.032 92.5689 215.605 92.1772Z" fill="white"/>
<defs>
<linearGradient id="paint0_linear_35228_46075" x1="261.691" y1="315.465" x2="115.344" y2="60.921" gradientUnits="userSpaceOnUse">
<stop stop-color="#A9AFC9" stop-opacity="0.75"/>
<stop offset="1" stop-color="#F5F8FF" stop-opacity="0.5"/>
</linearGradient>
<linearGradient id="paint1_linear_35228_46075" x1="172.317" y1="296.059" x2="110.222" y2="274.095" gradientUnits="userSpaceOnUse">
<stop stop-color="#A8ADB8"/>
<stop offset="1" stop-color="#D0D4DE"/>
</linearGradient>
<linearGradient id="paint2_linear_35228_46075" x1="150.5" y1="292" x2="273" y2="233.5" gradientUnits="userSpaceOnUse">
<stop stop-color="#A8ADB8"/>
<stop offset="1" stop-color="#D0D4DE"/>
</linearGradient>
<linearGradient id="paint3_linear_35228_46075" x1="187.907" y1="272.631" x2="184.793" y2="6.71756" gradientUnits="userSpaceOnUse">
<stop stop-color="#3A3E47"/>
<stop offset="0.9986" stop-color="#7F8797"/>
</linearGradient>
</defs>
</svg>
