<svg width="376" height="376" viewBox="0 0 376 376" fill="none" xmlns="http://www.w3.org/2000/svg">
<path d="M257.75 59H119.251C116.041 59 113.057 60.7181 111.453 63.5066L42.2034 183.493C40.5989 186.282 40.5989 189.718 42.2034 192.507L111.453 312.493C113.057 315.282 116.041 317 119.251 317H257.75C260.959 317 263.943 315.282 265.547 312.493L334.797 192.507C336.401 189.718 336.401 186.282 334.797 183.493L265.547 63.5066C263.943 60.7181 260.959 59 257.75 59Z" fill="url(#paint0_linear_35228_45728)"/>
<path d="M46.1417 40.7807C48.3358 40.7807 50.1144 39.002 50.1144 36.8079C50.1144 34.6139 48.3358 32.8352 46.1417 32.8352C43.9476 32.8352 42.1689 34.6139 42.1689 36.8079C42.1689 39.002 43.9476 40.7807 46.1417 40.7807Z" fill="#AFAEB4"/>
<path d="M298.019 335.219C299.854 335.219 301.341 333.732 301.341 331.897C301.341 330.063 299.854 328.576 298.019 328.576C296.185 328.576 294.698 330.063 294.698 331.897C294.698 333.732 296.185 335.219 298.019 335.219Z" fill="#AFAEB4"/>
<path d="M236.117 355.343C237.933 355.343 239.405 353.87 239.405 352.054C239.405 350.238 237.933 348.765 236.117 348.765C234.3 348.765 232.828 350.238 232.828 352.054C232.828 353.87 234.3 355.343 236.117 355.343Z" fill="#AFAEB4"/>
<path d="M337.812 341.113C340.006 341.113 341.784 339.334 341.784 337.14C341.784 334.946 340.006 333.167 337.812 333.167C335.618 333.167 333.839 334.946 333.839 337.14C333.839 339.334 335.618 341.113 337.812 341.113Z" fill="#AFAEB4"/>
<path d="M341.785 252.834C343.979 252.834 345.757 251.055 345.757 248.861C345.757 246.667 343.979 244.888 341.785 244.888C339.591 244.888 337.812 246.667 337.812 248.861C337.812 251.055 339.591 252.834 341.785 252.834Z" fill="#AFAEB4"/>
<path d="M19.9727 248.861C22.1668 248.861 23.9455 247.082 23.9455 244.888C23.9455 242.694 22.1668 240.916 19.9727 240.916C17.7787 240.916 16 242.694 16 244.888C16 247.082 17.7787 248.861 19.9727 248.861Z" fill="#AFAEB4"/>
<path d="M67.1773 360C69.3714 360 71.1501 358.221 71.1501 356.027C71.1501 353.833 69.3714 352.055 67.1773 352.055C64.9832 352.055 63.2046 353.833 63.2046 356.027C63.2046 358.221 64.9832 360 67.1773 360Z" fill="#AFAEB4"/>
<path d="M313.226 69.2087C315.42 69.2087 317.199 67.43 317.199 65.2359C317.199 63.0418 315.42 61.2632 313.226 61.2632C311.032 61.2632 309.253 63.0418 309.253 65.2359C309.253 67.43 311.032 69.2087 313.226 69.2087Z" fill="#AFAEB4"/>
<path d="M353.487 96.334C357.084 96.334 360 93.4181 360 89.8213C360 86.2244 357.084 83.3086 353.487 83.3086C349.89 83.3086 346.975 86.2244 346.975 89.8213C346.975 93.4181 349.89 96.334 353.487 96.334Z" fill="#AFAEB4"/>
<path d="M91.7955 23.9455C93.9896 23.9455 95.7682 22.1668 95.7682 19.9727C95.7682 17.7787 93.9896 16 91.7955 16C89.6014 16 87.8228 17.7787 87.8228 19.9727C87.8228 22.1668 89.6014 23.9455 91.7955 23.9455Z" fill="#AFAEB4"/>
<path d="M337.812 33.1935C340.006 33.1935 341.784 31.4149 341.784 29.2208C341.784 27.0267 340.006 25.248 337.812 25.248C335.618 25.248 333.839 27.0267 333.839 29.2208C333.839 31.4149 335.618 33.1935 337.812 33.1935Z" fill="#AFAEB4"/>
<path d="M67.1775 71.6834C70.7384 71.6834 73.6251 68.7968 73.6251 65.2359C73.6251 61.675 70.7384 58.7883 67.1775 58.7883C63.6167 58.7883 60.73 61.675 60.73 65.2359C60.73 68.7968 63.6167 71.6834 67.1775 71.6834Z" fill="#AFAEB4"/>
<path d="M46.1414 343.588C49.7023 343.588 52.589 340.701 52.589 337.14C52.589 333.579 49.7023 330.693 46.1414 330.693C42.5805 330.693 39.6938 333.579 39.6938 337.14C39.6938 340.701 42.5805 343.588 46.1414 343.588Z" fill="#AFAEB4"/>
<path d="M221.068 259.929H151.703L185.272 243.721V223.086H190.478V243.855L221.068 259.929Z" fill="url(#paint1_linear_35228_45728)"/>
<path d="M82.5254 304.365C82.5254 306.324 82.7401 308.202 83.1694 310.027H131.229C131.658 308.202 131.873 306.324 131.873 304.365C131.873 300.179 130.826 296.235 129.001 292.773C131.202 293.417 133.563 293.766 135.978 293.766C149.61 293.766 160.665 282.71 160.665 269.079C160.665 255.447 149.61 244.392 135.978 244.392C124.225 244.392 114.377 252.63 111.908 263.632C111.184 263.471 110.406 263.39 109.627 263.39C103.697 263.39 98.8671 268.193 98.8671 274.15C98.8671 276.512 99.6185 278.685 100.906 280.456C90.334 283.274 82.5254 292.907 82.5254 304.365Z" fill="url(#paint2_linear_35228_45728)"/>
<path d="M123.071 276.861V310.027H252.705V276.861C252.705 275.385 251.497 274.177 250.022 274.177H125.755C124.279 274.177 123.071 275.385 123.071 276.861Z" fill="url(#paint3_linear_35228_45728)"/>
<path d="M163.456 288.533H138.259C136.756 288.533 135.549 287.326 135.549 285.823C135.549 284.32 136.756 283.113 138.259 283.113H163.456C164.959 283.113 166.166 284.32 166.166 285.823C166.166 287.299 164.959 288.533 163.456 288.533Z" fill="white"/>
<path d="M163.456 301.091H138.259C136.756 301.091 135.549 299.884 135.549 298.381C135.549 296.878 136.756 295.671 138.259 295.671H163.456C164.959 295.671 166.166 296.878 166.166 298.381C166.166 299.884 164.959 301.091 163.456 301.091Z" fill="white"/>
<path d="M142.767 259.928H240.898C244.869 259.928 248.116 263.149 248.116 267.147C248.116 271.118 244.896 274.365 240.898 274.365H142.767C138.796 274.365 135.549 271.145 135.549 267.147C135.549 263.149 138.769 259.928 142.767 259.928Z" fill="url(#paint4_linear_35228_45728)"/>
<path d="M157 307.532C157 308.363 157.027 309.195 157.107 310.027H306.383C307.135 307.505 307.537 304.821 307.537 302.058C307.537 288.963 298.494 277.961 286.312 274.982C287.278 272.138 287.814 269.106 287.814 265.912C287.814 250.537 275.337 238.059 259.961 238.059C247.805 238.059 237.474 245.841 233.664 256.709C230.202 255.152 226.365 254.32 222.34 254.32C207.206 254.32 194.889 266.369 194.487 281.396C191.481 280.295 188.234 279.678 184.853 279.678C169.478 279.678 157 292.156 157 307.532Z" fill="url(#paint5_linear_35228_45728)"/>
<path d="M148.429 214.633C170.433 236.396 205.907 236.208 227.669 214.231C238.295 203.497 243.689 189.544 243.876 175.537C242.159 182.674 217.794 188.47 187.955 188.631C156.989 188.793 131.846 182.809 131.792 175.268C131.926 189.571 137.481 203.819 148.429 214.633Z" fill="url(#paint6_linear_35228_45728)"/>
<path d="M244.521 175.295C244.521 187.907 223.376 198.345 195.871 200.062C194.476 200.143 193.054 200.223 191.605 200.25C190.371 200.277 189.109 200.304 187.848 200.304C187.016 200.304 186.184 200.304 185.353 200.277C183.635 200.25 181.918 200.17 180.254 200.089C152.562 198.452 131.202 187.987 131.202 175.295C131.202 161.959 154.816 151.091 184.601 150.34C185.675 150.313 186.775 150.286 187.875 150.286C189.029 150.286 190.183 150.313 191.31 150.34C220.988 151.118 244.521 161.985 244.521 175.295Z" fill="url(#paint7_linear_35228_45728)"/>
<path d="M195.79 200.035C194.395 200.116 192.999 200.196 191.577 200.223C190.343 200.25 189.109 200.277 187.847 200.277C187.016 200.277 186.184 200.277 185.379 200.25C183.688 200.223 181.998 200.143 180.334 200.062L184.627 150.313L185.057 145.241C186.855 146.1 188.974 146.1 190.799 145.214L191.255 150.313L195.79 200.035Z" fill="url(#paint8_linear_35228_45728)"/>
<path d="M193.51 144.839C192.866 145.483 192.141 145.993 191.363 146.395C189.217 147.442 186.667 147.468 184.521 146.422C183.743 146.046 183.018 145.536 182.374 144.919C179.261 141.86 179.261 136.842 182.32 133.756C183.313 132.737 184.521 132.066 185.809 131.717C187.204 131.341 188.653 131.341 190.048 131.717C191.31 132.066 192.49 132.737 193.483 133.703C196.542 136.735 196.569 141.753 193.51 144.839Z" fill="url(#paint9_linear_35228_45728)"/>
<path d="M145.585 91.3054C145.129 91.3054 144.673 91.1712 144.297 90.876C143.358 90.1515 143.17 88.8098 143.868 87.8706C144.995 86.3679 149.261 81.0817 156.533 76.0638C166.193 69.3554 176.846 66.0012 188.17 66.028C199.333 66.0817 209.798 69.4359 219.324 76.037C226.489 81.0012 230.728 86.207 231.855 87.7096C232.58 88.6488 232.392 89.9905 231.453 90.715C230.514 91.4395 229.172 91.2517 228.448 90.3125C226.891 88.2731 212.589 70.4556 188.143 70.3214C188.063 70.3214 187.982 70.3214 187.929 70.3214C163.268 70.3214 148.859 88.4073 147.302 90.4735C146.873 91.0102 146.229 91.3054 145.585 91.3054Z" fill="#5C5B5F"/>
<path d="M167.67 104.132C167.213 104.132 166.757 103.998 166.355 103.676C165.416 102.951 165.255 101.61 165.979 100.67C167.374 98.8457 175.076 89.7491 188.01 89.8027C200.782 89.8564 208.376 98.792 209.772 100.59C210.496 101.529 210.335 102.871 209.396 103.595C208.457 104.32 207.115 104.159 206.391 103.22C205.21 101.717 198.797 94.1498 188.01 94.0961C187.983 94.0961 187.929 94.0961 187.902 94.0961C177.035 94.0961 170.568 101.744 169.387 103.3C168.958 103.837 168.314 104.132 167.67 104.132Z" fill="#5C5B5F"/>
<path d="M181.247 117.71C180.845 117.71 180.415 117.603 180.04 117.334C179.047 116.663 178.805 115.322 179.449 114.356C179.476 114.302 182.374 110.089 187.875 110.089C187.902 110.089 187.929 110.089 187.956 110.089C191.068 110.089 194.047 111.565 196.167 114.114L196.194 114.141C196.945 115.053 196.838 116.395 195.925 117.173C195.013 117.925 193.671 117.817 192.893 116.905L192.866 116.851C192.115 115.939 190.451 114.383 187.956 114.383C184.789 114.383 183.045 116.744 183.045 116.771C182.616 117.388 181.945 117.71 181.247 117.71Z" fill="#5C5B5F"/>
<path d="M193.724 235.698H191.014C190.719 235.698 190.478 235.939 190.478 236.234V239.75H185.272V236.234C185.272 235.939 185.03 235.698 184.735 235.698H182.025C181.73 235.698 181.488 235.939 181.488 236.234V245.519C181.488 245.814 181.73 246.056 182.025 246.056H184.735C185.03 246.056 185.272 245.814 185.272 245.519V242.004H190.478V245.519C190.478 245.814 190.719 246.056 191.014 246.056H193.724C194.02 246.056 194.261 245.814 194.261 245.519V236.234C194.261 235.939 194.02 235.698 193.724 235.698Z" fill="url(#paint10_linear_35228_45728)"/>
<path d="M286.972 190.026C286.972 184.284 282.329 179.642 276.587 179.642C273.099 179.642 270.013 181.359 268.134 183.989C267.625 183.828 267.088 183.747 266.551 183.747C263.546 183.747 261.104 186.189 261.104 189.195C261.104 189.517 261.131 189.839 261.184 190.161C257.32 190.805 254.369 194.159 254.369 198.211C254.369 202.719 258.018 206.368 262.526 206.368H286.972C291.48 206.368 295.129 202.719 295.129 198.211C295.129 193.703 291.453 190.026 286.972 190.026Z" fill="#88868B"/>
<path d="M136.113 135.527C136.113 132.79 138.34 130.563 141.077 130.563C142.74 130.563 144.216 131.395 145.129 132.629C145.37 132.549 145.612 132.522 145.88 132.522C147.302 132.522 148.483 133.676 148.483 135.125C148.483 135.286 148.456 135.447 148.429 135.581C150.281 135.876 151.676 137.486 151.676 139.418C151.676 141.565 149.932 143.309 147.785 143.309H136.113C133.966 143.309 132.222 141.565 132.222 139.418C132.222 137.272 133.966 135.527 136.113 135.527Z" fill="#88868B"/>
<path d="M121.595 207.307C121.595 203.739 118.697 200.841 115.129 200.841C114.994 200.841 114.833 200.841 114.699 200.867C114.27 198.399 112.096 196.52 109.493 196.52C109.171 196.52 108.849 196.547 108.554 196.601C107.642 194.132 105.254 192.361 102.463 192.361C99.2161 192.361 96.5327 194.749 96.0497 197.862C95.8082 197.808 95.5667 197.755 95.2984 197.755C93.6079 197.755 92.2125 199.123 92.2125 200.841V200.867C91.9978 200.841 91.81 200.841 91.5953 200.841C88.0265 200.841 85.1284 203.739 85.1284 207.307C85.1284 210.876 88.0265 213.774 91.5953 213.774H115.37C118.832 213.64 121.595 210.796 121.595 207.307Z" fill="#88868B"/>
<defs>
<linearGradient id="paint0_linear_35228_45728" x1="261.691" y1="315.465" x2="115.344" y2="60.921" gradientUnits="userSpaceOnUse">
<stop stop-color="#A9AFC9" stop-opacity="0.75"/>
<stop offset="1" stop-color="#F5F8FF" stop-opacity="0.5"/>
</linearGradient>
<linearGradient id="paint1_linear_35228_45728" x1="186.651" y1="305.967" x2="185.987" y2="199.297" gradientUnits="userSpaceOnUse">
<stop stop-color="#3A3E47"/>
<stop offset="0.9986" stop-color="#7F8797"/>
</linearGradient>
<linearGradient id="paint2_linear_35228_45728" x1="131.5" y1="291.5" x2="95.4152" y2="271.42" gradientUnits="userSpaceOnUse">
<stop stop-color="#A8ADB8"/>
<stop offset="1" stop-color="#D0D4DE"/>
</linearGradient>
<linearGradient id="paint3_linear_35228_45728" x1="232.663" y1="306.371" x2="160.056" y2="223.674" gradientUnits="userSpaceOnUse">
<stop stop-color="#A8ADB8"/>
<stop offset="1" stop-color="#D0D4DE"/>
</linearGradient>
<linearGradient id="paint4_linear_35228_45728" x1="211.5" y1="274" x2="211.384" y2="262.362" gradientUnits="userSpaceOnUse">
<stop stop-color="#A8ADB8"/>
<stop offset="0.739406" stop-color="#D0D4DE"/>
</linearGradient>
<linearGradient id="paint5_linear_35228_45728" x1="221.5" y1="299" x2="257.386" y2="233.304" gradientUnits="userSpaceOnUse">
<stop stop-color="#A8ADB8"/>
<stop offset="1" stop-color="#D0D4DE"/>
</linearGradient>
<linearGradient id="paint6_linear_35228_45728" x1="226.548" y1="225.168" x2="188" y2="152.5" gradientUnits="userSpaceOnUse">
<stop stop-color="#A8ADB8"/>
<stop offset="1" stop-color="#D0D4DE"/>
</linearGradient>
<linearGradient id="paint7_linear_35228_45728" x1="188.295" y1="262.806" x2="187.546" y2="117.988" gradientUnits="userSpaceOnUse">
<stop stop-color="#3A3E47"/>
<stop offset="0.9986" stop-color="#7F8797"/>
</linearGradient>
<linearGradient id="paint8_linear_35228_45728" x1="167.5" y1="191" x2="159.179" y2="172.318" gradientUnits="userSpaceOnUse">
<stop stop-color="#A8ADB8"/>
<stop offset="1" stop-color="#D0D4DE"/>
</linearGradient>
<linearGradient id="paint9_linear_35228_45728" x1="193.355" y1="145.586" x2="184.351" y2="141.169" gradientUnits="userSpaceOnUse">
<stop stop-color="#A8ADB8"/>
<stop offset="1" stop-color="#D0D4DE"/>
</linearGradient>
<linearGradient id="paint10_linear_35228_45728" x1="192.286" y1="244.999" x2="179.627" y2="235.484" gradientUnits="userSpaceOnUse">
<stop stop-color="#A8ADB8"/>
<stop offset="1" stop-color="#D0D4DE"/>
</linearGradient>
</defs>
</svg>
