<svg width="376" height="376" viewBox="0 0 376 376" fill="none" xmlns="http://www.w3.org/2000/svg">
<path d="M257.749 59H119.251C116.041 59 113.057 60.7181 111.453 63.5066L42.2034 183.493C40.5989 186.282 40.5989 189.718 42.2034 192.507L111.453 312.493C113.057 315.282 116.041 317 119.251 317H257.749C260.959 317 263.943 315.282 265.547 312.493L334.797 192.507C336.401 189.718 336.401 186.282 334.797 183.493L265.547 63.5066C263.943 60.7181 260.959 59 257.749 59Z" fill="url(#paint0_linear_31481_123290)"/>
<path d="M46.1417 40.7807C48.3358 40.7807 50.1144 39.002 50.1144 36.8079C50.1144 34.6139 48.3358 32.8352 46.1417 32.8352C43.9476 32.8352 42.1689 34.6139 42.1689 36.8079C42.1689 39.002 43.9476 40.7807 46.1417 40.7807Z" fill="#94CFEF"/>
<path d="M298.019 335.219C299.854 335.219 301.341 333.732 301.341 331.897C301.341 330.063 299.854 328.576 298.019 328.576C296.185 328.576 294.698 330.063 294.698 331.897C294.698 333.732 296.185 335.219 298.019 335.219Z" fill="#94CFEF"/>
<path d="M236.117 355.343C237.933 355.343 239.406 353.87 239.406 352.054C239.406 350.238 237.933 348.765 236.117 348.765C234.301 348.765 232.828 350.238 232.828 352.054C232.828 353.87 234.301 355.343 236.117 355.343Z" fill="#94CFEF"/>
<path d="M337.812 341.113C340.006 341.113 341.784 339.334 341.784 337.14C341.784 334.946 340.006 333.167 337.812 333.167C335.618 333.167 333.839 334.946 333.839 337.14C333.839 339.334 335.618 341.113 337.812 341.113Z" fill="#94CFEF"/>
<path d="M341.785 252.834C343.979 252.834 345.757 251.055 345.757 248.861C345.757 246.667 343.979 244.888 341.785 244.888C339.591 244.888 337.812 246.667 337.812 248.861C337.812 251.055 339.591 252.834 341.785 252.834Z" fill="#94CFEF"/>
<path d="M19.9727 248.861C22.1668 248.861 23.9455 247.082 23.9455 244.888C23.9455 242.694 22.1668 240.916 19.9727 240.916C17.7787 240.916 16 242.694 16 244.888C16 247.082 17.7787 248.861 19.9727 248.861Z" fill="#94CFEF"/>
<path d="M67.1778 360C69.3719 360 71.1505 358.221 71.1505 356.027C71.1505 353.833 69.3719 352.055 67.1778 352.055C64.9837 352.055 63.2051 353.833 63.2051 356.027C63.2051 358.221 64.9837 360 67.1778 360Z" fill="#94CFEF"/>
<path d="M313.226 69.2087C315.42 69.2087 317.199 67.43 317.199 65.2359C317.199 63.0418 315.42 61.2632 313.226 61.2632C311.032 61.2632 309.253 63.0418 309.253 65.2359C309.253 67.43 311.032 69.2087 313.226 69.2087Z" fill="#94CFEF"/>
<path d="M353.487 96.334C357.084 96.334 360 93.4181 360 89.8213C360 86.2244 357.084 83.3086 353.487 83.3086C349.89 83.3086 346.975 86.2244 346.975 89.8213C346.975 93.4181 349.89 96.334 353.487 96.334Z" fill="#94CFEF"/>
<path d="M91.795 23.9455C93.9891 23.9455 95.7677 22.1668 95.7677 19.9727C95.7677 17.7787 93.9891 16 91.795 16C89.6009 16 87.8223 17.7787 87.8223 19.9727C87.8223 22.1668 89.6009 23.9455 91.795 23.9455Z" fill="#94CFEF"/>
<path d="M337.812 33.1935C340.006 33.1935 341.784 31.4149 341.784 29.2208C341.784 27.0267 340.006 25.248 337.812 25.248C335.618 25.248 333.839 27.0267 333.839 29.2208C333.839 31.4149 335.618 33.1935 337.812 33.1935Z" fill="#94CFEF"/>
<path d="M67.178 71.6834C70.7389 71.6834 73.6256 68.7968 73.6256 65.2359C73.6256 61.675 70.7389 58.7883 67.178 58.7883C63.6171 58.7883 60.7305 61.675 60.7305 65.2359C60.7305 68.7968 63.6171 71.6834 67.178 71.6834Z" fill="#94CFEF"/>
<path d="M46.1409 343.588C49.7018 343.588 52.5885 340.701 52.5885 337.14C52.5885 333.579 49.7018 330.693 46.1409 330.693C42.58 330.693 39.6934 333.579 39.6934 337.14C39.6934 340.701 42.58 343.588 46.1409 343.588Z" fill="#94CFEF"/>
<g filter="url(#filter0_d_31481_123290)">
<path d="M260.562 133H115.438C110.778 133 107 136.778 107 141.438V318.625C107 323.285 110.778 327.062 115.438 327.062H260.562C265.222 327.062 269 323.285 269 318.625V141.438C269 136.778 265.222 133 260.562 133Z" fill="white"/>
</g>
<path d="M171.125 158.312H127.25C124.454 158.312 122.188 160.579 122.188 163.375C122.188 166.171 124.454 168.438 127.25 168.438H171.125C173.921 168.438 176.188 166.171 176.188 163.375C176.188 160.579 173.921 158.312 171.125 158.312Z" fill="#94CFEF"/>
<path d="M201.5 180.25H127.25C124.454 180.25 122.188 182.517 122.188 185.312C122.188 188.108 124.454 190.375 127.25 190.375H201.5C204.296 190.375 206.562 188.108 206.562 185.312C206.562 182.517 204.296 180.25 201.5 180.25Z" fill="#DEE1E8"/>
<path d="M171.125 203.875H127.25C124.454 203.875 122.188 206.142 122.188 208.938C122.188 211.733 124.454 214 127.25 214H171.125C173.921 214 176.188 211.733 176.188 208.938C176.188 206.142 173.921 203.875 171.125 203.875Z" fill="#94CFEF"/>
<path d="M201.5 225.812H127.25C124.454 225.812 122.188 228.079 122.188 230.875C122.188 233.671 124.454 235.938 127.25 235.938H201.5C204.296 235.938 206.562 233.671 206.562 230.875C206.562 228.079 204.296 225.812 201.5 225.812Z" fill="#DEE1E8"/>
<path d="M171.125 249.438H127.25C124.454 249.438 122.188 251.704 122.188 254.5C122.188 257.296 124.454 259.562 127.25 259.562H171.125C173.921 259.562 176.188 257.296 176.188 254.5C176.188 251.704 173.921 249.438 171.125 249.438Z" fill="#94CFEF"/>
<path d="M201.5 271.375H127.25C124.454 271.375 122.188 273.642 122.188 276.438C122.188 279.233 124.454 281.5 127.25 281.5H201.5C204.296 281.5 206.562 279.233 206.562 276.438C206.562 273.642 204.296 271.375 201.5 271.375Z" fill="#DEE1E8"/>
<g filter="url(#filter1_d_31481_123290)">
<path d="M260.562 46.9375H115.438C110.778 46.9375 107 50.7151 107 55.375V106C107 110.66 110.778 114.438 115.438 114.438H260.562C265.222 114.438 269 110.66 269 106V55.375C269 50.7151 265.222 46.9375 260.562 46.9375Z" fill="url(#paint1_linear_31481_123290)"/>
</g>
<path d="M171.125 65.5H127.25C124.454 65.5 122.188 67.7666 122.188 70.5625C122.188 73.3584 124.454 75.625 127.25 75.625H171.125C173.921 75.625 176.188 73.3584 176.188 70.5625C176.188 67.7666 173.921 65.5 171.125 65.5Z" fill="#94CFEF"/>
<path d="M201.5 87.4375H127.25C124.454 87.4375 122.188 89.7041 122.188 92.5C122.188 95.2959 124.454 97.5625 127.25 97.5625H201.5C204.296 97.5625 206.562 95.2959 206.562 92.5C206.562 89.7041 204.296 87.4375 201.5 87.4375Z" fill="white"/>
<defs>
<filter id="filter0_d_31481_123290" x="101" y="124" width="174" height="206.062" filterUnits="userSpaceOnUse" color-interpolation-filters="sRGB">
<feFlood flood-opacity="0" result="BackgroundImageFix"/>
<feColorMatrix in="SourceAlpha" type="matrix" values="0 0 0 0 0 0 0 0 0 0 0 0 0 0 0 0 0 0 127 0" result="hardAlpha"/>
<feOffset dy="-3"/>
<feGaussianBlur stdDeviation="3"/>
<feColorMatrix type="matrix" values="0 0 0 0 0.788235 0 0 0 0 0.803922 0 0 0 0 0.85098 0 0 0 0.349 0"/>
<feBlend mode="normal" in2="BackgroundImageFix" result="effect1_dropShadow_31481_123290"/>
<feBlend mode="normal" in="SourceGraphic" in2="effect1_dropShadow_31481_123290" result="shape"/>
</filter>
<filter id="filter1_d_31481_123290" x="101" y="37.9375" width="174" height="79.5" filterUnits="userSpaceOnUse" color-interpolation-filters="sRGB">
<feFlood flood-opacity="0" result="BackgroundImageFix"/>
<feColorMatrix in="SourceAlpha" type="matrix" values="0 0 0 0 0 0 0 0 0 0 0 0 0 0 0 0 0 0 127 0" result="hardAlpha"/>
<feOffset dy="-3"/>
<feGaussianBlur stdDeviation="3"/>
<feColorMatrix type="matrix" values="0 0 0 0 0.788235 0 0 0 0 0.803922 0 0 0 0 0.85098 0 0 0 0.349 0"/>
<feBlend mode="normal" in2="BackgroundImageFix" result="effect1_dropShadow_31481_123290"/>
<feBlend mode="normal" in="SourceGraphic" in2="effect1_dropShadow_31481_123290" result="shape"/>
</filter>
<linearGradient id="paint0_linear_31481_123290" x1="339.138" y1="320.198" x2="36.2115" y2="64.6769" gradientUnits="userSpaceOnUse">
<stop stop-color="#0281CE" stop-opacity="0.5"/>
<stop offset="1" stop-color="#C9EAFF" stop-opacity="0.5"/>
</linearGradient>
<linearGradient id="paint1_linear_31481_123290" x1="171" y1="27" x2="188" y2="114.438" gradientUnits="userSpaceOnUse">
<stop stop-color="#008BC9"/>
<stop offset="1" stop-color="#0B5FA5"/>
</linearGradient>
</defs>
</svg>
