<svg width="376" height="376" viewBox="0 0 376 376" fill="none" xmlns="http://www.w3.org/2000/svg">
<path d="M257.749 59H119.251C116.041 59 113.057 60.7181 111.453 63.5066L42.2034 183.493C40.5989 186.282 40.5989 189.718 42.2034 192.507L111.453 312.493C113.057 315.282 116.041 317 119.251 317H257.749C260.959 317 263.943 315.282 265.547 312.493L334.797 192.507C336.401 189.718 336.401 186.282 334.797 183.493L265.547 63.5066C263.943 60.7181 260.959 59 257.749 59Z" fill="url(#paint0_linear_35228_45893)"/>
<path d="M215.967 349.934C218.158 349.934 219.934 348.158 219.934 345.967C219.934 343.776 218.158 342 215.967 342C213.776 342 212 343.776 212 345.967C212 348.158 213.776 349.934 215.967 349.934Z" fill="#008BC9"/>
<path d="M19.9671 249.767C22.1581 249.767 23.9342 247.991 23.9342 245.8C23.9342 243.609 22.1581 241.833 19.9671 241.833C17.7761 241.833 16 243.609 16 245.8C16 247.991 17.7761 249.767 19.9671 249.767Z" fill="#008BC9"/>
<path d="M62.0535 339.384C64.2445 339.384 66.0206 337.608 66.0206 335.417C66.0206 333.226 64.2445 331.45 62.0535 331.45C59.8626 331.45 58.0864 333.226 58.0864 335.417C58.0864 337.608 59.8626 339.384 62.0535 339.384Z" fill="#008BC9"/>
<path d="M86.636 360C88.827 360 90.6032 358.224 90.6032 356.033C90.6032 353.842 88.827 352.066 86.636 352.066C84.4451 352.066 82.6689 353.842 82.6689 356.033C82.6689 358.224 84.4451 360 86.636 360Z" fill="#008BC9"/>
<path d="M62.0532 71.1169C65.3397 71.1169 68.0039 68.4527 68.0039 65.1662C68.0039 61.8798 65.3397 59.2156 62.0532 59.2156C58.7667 59.2156 56.1025 61.8798 56.1025 65.1662C56.1025 68.4527 58.7667 71.1169 62.0532 71.1169Z" fill="#008BC9"/>
<path d="M41.0477 38.4042C43.2386 38.4042 45.0148 36.628 45.0148 34.4371C45.0148 32.2461 43.2386 30.47 41.0477 30.47C38.8567 30.47 37.0806 32.2461 37.0806 34.4371C37.0806 36.628 38.8567 38.4042 41.0477 38.4042Z" fill="#008BC9"/>
<path d="M187.278 23.9342C189.469 23.9342 191.245 22.1581 191.245 19.9671C191.245 17.7761 189.469 16 187.278 16C185.087 16 183.311 17.7761 183.311 19.9671C183.311 22.1581 185.087 23.9342 187.278 23.9342Z" fill="#008BC9"/>
<path d="M351.165 268.269C352.978 268.269 354.449 266.799 354.449 264.985C354.449 263.171 352.978 261.7 351.165 261.7C349.351 261.7 347.88 263.171 347.88 264.985C347.88 266.799 349.351 268.269 351.165 268.269Z" fill="#008BC9"/>
<path d="M283.171 359.967C284.985 359.967 286.455 358.497 286.455 356.683C286.455 354.869 284.985 353.399 283.171 353.399C281.357 353.399 279.887 354.869 279.887 356.683C279.887 358.497 281.357 359.967 283.171 359.967Z" fill="#008BC9"/>
<path d="M41.4378 89.424C43.6288 89.424 45.4049 87.6478 45.4049 85.4568C45.4049 83.2659 43.6288 81.4897 41.4378 81.4897C39.2468 81.4897 37.4707 83.2659 37.4707 85.4568C37.4707 87.6478 39.2468 89.424 41.4378 89.424Z" fill="#008BC9"/>
<path d="M332.304 47.802C336.022 47.802 339.035 44.7884 339.035 41.0709C339.035 37.3534 336.022 34.3398 332.304 34.3398C328.587 34.3398 325.573 37.3534 325.573 41.0709C325.573 44.7884 328.587 47.802 332.304 47.802Z" fill="#008BC9"/>
<path d="M355.155 70.0112C357.831 70.0112 360 67.842 360 65.1661C360 62.4903 357.831 60.321 355.155 60.321C352.479 60.321 350.31 62.4903 350.31 65.1661C350.31 67.842 352.479 70.0112 355.155 70.0112Z" fill="#008BC9"/>
<path d="M332.304 93.9763C334.657 93.9763 336.564 92.0691 336.564 89.7165C336.564 87.3639 334.657 85.4568 332.304 85.4568C329.952 85.4568 328.044 87.3639 328.044 89.7165C328.044 92.0691 329.952 93.9763 332.304 93.9763Z" fill="#008BC9"/>
<path d="M334.971 324.686C338.114 324.686 340.661 322.139 340.661 318.996C340.661 315.853 338.114 313.305 334.971 313.305C331.828 313.305 329.28 315.853 329.28 318.996C329.28 322.139 331.828 324.686 334.971 324.686Z" fill="#008BC9"/>
<g filter="url(#filter0_d_35228_45893)">
<rect x="54" y="88" width="234" height="56.2672" rx="8" fill="white"/>
<rect x="62.9312" y="95.145" width="42.8702" height="42.8702" rx="4" fill="url(#paint1_linear_35228_45893)"/>
<path d="M90.9476 105.327C92.5143 106.73 93.2976 108.648 93.2976 111.078C93.2976 113.614 92.4836 115.516 90.8555 116.784C89.4424 117.886 87.6454 118.52 85.449 118.671C84.8346 118.716 84.3431 119.199 84.3124 119.803L84.2817 120.527C84.251 121.161 83.7134 121.66 83.0683 121.66H81.6245C80.9641 121.66 80.4265 121.146 80.4111 120.497L80.3036 116.995C80.2883 116.316 80.8412 115.757 81.517 115.757C83.9899 115.757 85.879 115.44 87.1999 114.776C88.5055 114.127 89.1659 112.889 89.1659 111.048C89.1659 109.719 88.782 108.678 87.9986 107.923C87.2153 107.168 86.1402 106.791 84.7732 106.791C83.3908 106.791 82.3157 107.153 81.517 107.878C80.9334 108.406 80.5647 109.1 80.4111 109.946C80.3036 110.519 79.7968 110.927 79.2131 110.927H77.5543C76.8171 110.927 76.2334 110.278 76.3409 109.553C76.4945 108.602 76.8017 107.712 77.2625 106.912C77.9537 105.734 78.9367 104.828 80.2268 104.164C81.517 103.515 83.0069 103.183 84.7117 103.183C87.2921 103.228 89.381 103.923 90.9476 105.327ZM80.2576 129.192C79.72 128.664 79.4589 128.015 79.4589 127.245C79.4589 126.475 79.72 125.811 80.2576 125.298C80.7951 124.769 81.4556 124.513 82.2389 124.513C83.0069 124.513 83.652 124.769 84.1895 125.298C84.7271 125.826 84.9882 126.475 84.9882 127.245C84.9882 128.015 84.7271 128.679 84.1895 129.192C83.652 129.72 83.0069 129.977 82.2389 129.977C81.4556 129.977 80.7951 129.72 80.2576 129.192Z" fill="white"/>
<rect x="118.305" y="121.939" width="158.084" height="10.7176" rx="5.35878" fill="#008BC9"/>
<rect x="118.305" y="100.504" width="50.0153" height="10.7176" rx="5.35878" fill="#0C63AA"/>
</g>
<g filter="url(#filter1_d_35228_45893)">
<rect x="88" y="160.267" width="234" height="56.2672" rx="8" fill="white"/>
<rect x="96.9312" y="167.412" width="42.8702" height="42.8702" rx="4" fill="url(#paint2_linear_35228_45893)"/>
<path d="M124.948 177.594C126.514 178.998 127.298 180.915 127.298 183.345C127.298 185.881 126.484 187.783 124.855 189.051C123.442 190.153 121.645 190.787 119.449 190.938C118.835 190.983 118.343 191.466 118.312 192.07L118.282 192.795C118.251 193.429 117.713 193.927 117.068 193.927H115.625C114.964 193.927 114.427 193.413 114.411 192.764L114.304 189.262C114.288 188.583 114.841 188.024 115.517 188.024C117.99 188.024 119.879 187.707 121.2 187.043C122.505 186.394 123.166 185.156 123.166 183.315C123.166 181.986 122.782 180.945 121.999 180.19C121.215 179.435 120.14 179.058 118.773 179.058C117.391 179.058 116.316 179.42 115.517 180.145C114.933 180.673 114.565 181.367 114.411 182.213C114.304 182.786 113.797 183.194 113.213 183.194H111.554C110.817 183.194 110.233 182.545 110.341 181.82C110.495 180.869 110.802 179.979 111.262 179.179C111.954 178.001 112.937 177.096 114.227 176.431C115.517 175.782 117.007 175.45 118.712 175.45C121.292 175.495 123.381 176.19 124.948 177.594ZM114.258 201.459C113.72 200.931 113.459 200.282 113.459 199.512C113.459 198.742 113.72 198.078 114.258 197.565C114.795 197.036 115.456 196.78 116.239 196.78C117.007 196.78 117.652 197.036 118.19 197.565C118.727 198.093 118.988 198.742 118.988 199.512C118.988 200.282 118.727 200.946 118.19 201.459C117.652 201.987 117.007 202.244 116.239 202.244C115.456 202.244 114.795 201.987 114.258 201.459Z" fill="white"/>
<rect x="152.305" y="194.206" width="158.084" height="10.7176" rx="5.35878" fill="#008BC9"/>
<rect x="152.305" y="172.771" width="50.0153" height="10.7176" rx="5.35878" fill="#0C63AA"/>
</g>
<g filter="url(#filter2_d_35228_45893)">
<rect x="54" y="232.534" width="234" height="56.2672" rx="8" fill="white"/>
<rect x="62.9312" y="239.679" width="42.8702" height="42.8702" rx="4" fill="url(#paint3_linear_35228_45893)"/>
<path d="M90.9476 249.861C92.5143 251.265 93.2976 253.182 93.2976 255.612C93.2976 258.148 92.4836 260.05 90.8555 261.318C89.4424 262.42 87.6454 263.054 85.449 263.205C84.8346 263.25 84.3431 263.733 84.3124 264.337L84.2817 265.062C84.251 265.696 83.7134 266.194 83.0683 266.194H81.6245C80.9641 266.194 80.4265 265.681 80.4111 265.032L80.3036 261.53C80.2883 260.85 80.8412 260.292 81.517 260.292C83.9899 260.292 85.879 259.975 87.1999 259.311C88.5055 258.662 89.1659 257.424 89.1659 255.582C89.1659 254.254 88.782 253.212 87.9986 252.457C87.2153 251.703 86.1402 251.325 84.7732 251.325C83.3908 251.325 82.3157 251.688 81.517 252.412C80.9334 252.94 80.5647 253.635 80.4111 254.48C80.3036 255.054 79.7968 255.461 79.2131 255.461H77.5543C76.8171 255.461 76.2334 254.812 76.3409 254.088C76.4945 253.137 76.8017 252.246 77.2625 251.446C77.9537 250.269 78.9367 249.363 80.2268 248.699C81.517 248.05 83.0069 247.718 84.7117 247.718C87.2921 247.763 89.381 248.457 90.9476 249.861ZM80.2576 273.726C79.72 273.198 79.4589 272.549 79.4589 271.779C79.4589 271.009 79.72 270.345 80.2576 269.832C80.7951 269.304 81.4556 269.047 82.2389 269.047C83.0069 269.047 83.652 269.304 84.1895 269.832C84.7271 270.36 84.9882 271.009 84.9882 271.779C84.9882 272.549 84.7271 273.213 84.1895 273.726C83.652 274.255 83.0069 274.511 82.2389 274.511C81.4556 274.511 80.7951 274.255 80.2576 273.726Z" fill="white"/>
<rect x="118.305" y="266.473" width="158.084" height="10.7176" rx="5.35878" fill="#008BC9"/>
<rect x="118.305" y="245.038" width="50.0153" height="10.7176" rx="5.35878" fill="#0C63AA"/>
</g>
<defs>
<filter id="filter0_d_35228_45893" x="50" y="86" width="242" height="64.2671" filterUnits="userSpaceOnUse" color-interpolation-filters="sRGB">
<feFlood flood-opacity="0" result="BackgroundImageFix"/>
<feColorMatrix in="SourceAlpha" type="matrix" values="0 0 0 0 0 0 0 0 0 0 0 0 0 0 0 0 0 0 127 0" result="hardAlpha"/>
<feOffset dy="2"/>
<feGaussianBlur stdDeviation="2"/>
<feComposite in2="hardAlpha" operator="out"/>
<feColorMatrix type="matrix" values="0 0 0 0 0.212031 0 0 0 0 0.357314 0 0 0 0 0.8625 0 0 0 0.4 0"/>
<feBlend mode="normal" in2="BackgroundImageFix" result="effect1_dropShadow_35228_45893"/>
<feBlend mode="normal" in="SourceGraphic" in2="effect1_dropShadow_35228_45893" result="shape"/>
</filter>
<filter id="filter1_d_35228_45893" x="84" y="158.267" width="242" height="64.2671" filterUnits="userSpaceOnUse" color-interpolation-filters="sRGB">
<feFlood flood-opacity="0" result="BackgroundImageFix"/>
<feColorMatrix in="SourceAlpha" type="matrix" values="0 0 0 0 0 0 0 0 0 0 0 0 0 0 0 0 0 0 127 0" result="hardAlpha"/>
<feOffset dy="2"/>
<feGaussianBlur stdDeviation="2"/>
<feComposite in2="hardAlpha" operator="out"/>
<feColorMatrix type="matrix" values="0 0 0 0 0.212031 0 0 0 0 0.357314 0 0 0 0 0.8625 0 0 0 0.4 0"/>
<feBlend mode="normal" in2="BackgroundImageFix" result="effect1_dropShadow_35228_45893"/>
<feBlend mode="normal" in="SourceGraphic" in2="effect1_dropShadow_35228_45893" result="shape"/>
</filter>
<filter id="filter2_d_35228_45893" x="50" y="230.534" width="242" height="64.2671" filterUnits="userSpaceOnUse" color-interpolation-filters="sRGB">
<feFlood flood-opacity="0" result="BackgroundImageFix"/>
<feColorMatrix in="SourceAlpha" type="matrix" values="0 0 0 0 0 0 0 0 0 0 0 0 0 0 0 0 0 0 127 0" result="hardAlpha"/>
<feOffset dy="2"/>
<feGaussianBlur stdDeviation="2"/>
<feComposite in2="hardAlpha" operator="out"/>
<feColorMatrix type="matrix" values="0 0 0 0 0.212031 0 0 0 0 0.357314 0 0 0 0 0.8625 0 0 0 0.4 0"/>
<feBlend mode="normal" in2="BackgroundImageFix" result="effect1_dropShadow_35228_45893"/>
<feBlend mode="normal" in="SourceGraphic" in2="effect1_dropShadow_35228_45893" result="shape"/>
</filter>
<linearGradient id="paint0_linear_35228_45893" x1="339.138" y1="320.198" x2="36.2115" y2="64.6769" gradientUnits="userSpaceOnUse">
<stop stop-color="#0281CE" stop-opacity="0.5"/>
<stop offset="1" stop-color="#C9EAFF" stop-opacity="0.5"/>
</linearGradient>
<linearGradient id="paint1_linear_35228_45893" x1="105.801" y1="116.58" x2="62.9312" y2="116.58" gradientUnits="userSpaceOnUse">
<stop stop-color="#0281CE"/>
<stop offset="1" stop-color="#0771C7"/>
</linearGradient>
<linearGradient id="paint2_linear_35228_45893" x1="139.801" y1="188.847" x2="96.9312" y2="188.847" gradientUnits="userSpaceOnUse">
<stop stop-color="#0281CE"/>
<stop offset="1" stop-color="#0771C7"/>
</linearGradient>
<linearGradient id="paint3_linear_35228_45893" x1="105.801" y1="261.115" x2="62.9312" y2="261.115" gradientUnits="userSpaceOnUse">
<stop stop-color="#0281CE"/>
<stop offset="1" stop-color="#0771C7"/>
</linearGradient>
</defs>
</svg>
