<svg width="376" height="376" viewBox="0 0 376 376" fill="none" xmlns="http://www.w3.org/2000/svg">
<path d="M257.749 59H119.251C116.041 59 113.057 60.7181 111.453 63.5066L42.2034 183.493C40.5989 186.282 40.5989 189.718 42.2034 192.507L111.453 312.493C113.057 315.282 116.041 317 119.251 317H257.749C260.959 317 263.943 315.282 265.547 312.493L334.797 192.507C336.401 189.718 336.401 186.282 334.797 183.493L265.547 63.5066C263.943 60.7181 260.959 59 257.749 59Z" fill="url(#paint0_linear_35228_45978)"/>
<path d="M65.5428 66.5429C67.7966 66.5429 69.6237 64.7158 69.6237 62.462C69.6237 60.2082 67.7966 58.3811 65.5428 58.3811C63.289 58.3811 61.4619 60.2082 61.4619 62.462C61.4619 64.7158 63.289 66.5429 65.5428 66.5429Z" fill="#008BC9"/>
<path d="M46.3431 56.9431C48.5969 56.9431 50.424 55.116 50.424 52.8622C50.424 50.6083 48.5969 48.7812 46.3431 48.7812C44.0893 48.7812 42.2622 50.6083 42.2622 52.8622C42.2622 55.116 44.0893 56.9431 46.3431 56.9431Z" fill="#008BC9"/>
<path d="M170.677 360C172.561 360 174.089 358.472 174.089 356.588C174.089 354.704 172.561 353.176 170.677 353.176C168.793 353.176 167.265 354.704 167.265 356.588C167.265 358.472 168.793 360 170.677 360Z" fill="#008BC9"/>
<path d="M322.34 347.958C324.594 347.958 326.421 346.131 326.421 343.877C326.421 341.623 324.594 339.796 322.34 339.796C320.086 339.796 318.259 341.623 318.259 343.877C318.259 346.131 320.086 347.958 322.34 347.958Z" fill="#008BC9"/>
<path d="M350.17 296.746C352.424 296.746 354.251 294.919 354.251 292.665C354.251 290.411 352.424 288.584 350.17 288.584C347.916 288.584 346.089 290.411 346.089 292.665C346.089 294.919 347.916 296.746 350.17 296.746Z" fill="#008BC9"/>
<path d="M42.5926 296.311C44.8464 296.311 46.6735 294.484 46.6735 292.23C46.6735 289.977 44.8464 288.149 42.5926 288.149C40.3388 288.149 38.5117 289.977 38.5117 292.23C38.5117 294.484 40.3388 296.311 42.5926 296.311Z" fill="#008BC9"/>
<path d="M20.0809 323.339C22.3347 323.339 24.1618 321.511 24.1618 319.258C24.1618 317.004 22.3347 315.177 20.0809 315.177C17.8271 315.177 16 317.004 16 319.258C16 321.511 17.8271 323.339 20.0809 323.339Z" fill="#008BC9"/>
<path d="M46.6404 335.314C50.2428 335.314 53.1632 332.394 53.1632 328.791C53.1632 325.189 50.2428 322.269 46.6404 322.269C43.038 322.269 40.1177 325.189 40.1177 328.791C40.1177 332.394 43.038 335.314 46.6404 335.314Z" fill="#008BC9"/>
<path d="M355.919 45.3354C358.173 45.3354 360 43.5083 360 41.2545C360 39.0007 358.173 37.1736 355.919 37.1736C353.665 37.1736 351.838 39.0007 351.838 41.2545C351.838 43.5083 353.665 45.3354 355.919 45.3354Z" fill="#008BC9"/>
<path d="M337.369 73.233C341.064 73.233 344.059 70.2378 344.059 66.543C344.059 62.8482 341.064 59.853 337.369 59.853C333.674 59.853 330.679 62.8482 330.679 66.543C330.679 70.2378 333.674 73.233 337.369 73.233Z" fill="#008BC9"/>
<path d="M43.9344 99.9594C46.1882 99.9594 48.0153 98.1323 48.0153 95.8785C48.0153 93.6247 46.1882 91.7976 43.9344 91.7976C41.6806 91.7976 39.8535 93.6247 39.8535 95.8785C39.8535 98.1323 41.6806 99.9594 43.9344 99.9594Z" fill="#008BC9"/>
<path d="M312.081 33.6284C314.335 33.6284 316.162 31.8013 316.162 29.5475C316.162 27.2936 314.335 25.4666 312.081 25.4666C309.827 25.4666 308 27.2936 308 29.5475C308 31.8013 309.827 33.6284 312.081 33.6284Z" fill="#008BC9"/>
<path d="M120.133 29.2462C123.791 29.2462 126.756 26.2809 126.756 22.6231C126.756 18.9653 123.791 16 120.133 16C116.476 16 113.51 18.9653 113.51 22.6231C113.51 26.2809 116.476 29.2462 120.133 29.2462Z" fill="#008BC9"/>
<path d="M350.17 325.881C353.827 325.881 356.793 322.916 356.793 319.258C356.793 315.6 353.827 312.635 350.17 312.635C346.512 312.635 343.546 315.6 343.546 319.258C343.546 322.916 346.512 325.881 350.17 325.881Z" fill="#008BC9"/>
<path d="M221.253 26.0015C223.119 26.0015 224.632 24.4889 224.632 22.6231C224.632 20.7572 223.119 19.2446 221.253 19.2446C219.388 19.2446 217.875 20.7572 217.875 22.6231C217.875 24.4889 219.388 26.0015 221.253 26.0015Z" fill="#008BC9"/>
<path d="M254.282 89.1883C252.897 86.566 250.174 84.9253 247.208 84.9253H128.792C125.826 84.9253 123.103 86.566 121.718 89.1883L78 171.94H298L254.282 89.1883Z" fill="url(#paint1_linear_35228_45978)"/>
<rect x="151.88" y="80" width="72.2388" height="132.985" rx="8" fill="url(#paint2_linear_35228_45978)"/>
<rect x="130.537" y="99.7014" width="114.925" height="113.284" rx="8" fill="url(#paint3_linear_35228_45978)"/>
<rect x="117.403" y="124.328" width="141.194" height="88.6567" rx="8" fill="url(#paint4_linear_35228_45978)"/>
<rect x="104.269" y="147.313" width="167.463" height="65.6716" rx="8" fill="url(#paint5_linear_35228_45978)"/>
<rect x="161.731" y="165.373" width="52.5373" height="6.56716" rx="3.28358" fill="white"/>
<rect x="135.463" y="178.508" width="105.075" height="6.56716" rx="3.28358" fill="white"/>
<rect x="135.463" y="191.642" width="105.075" height="6.56716" rx="3.28358" fill="white"/>
<path d="M145.313 187.94C145.313 179.104 138.15 171.94 129.313 171.94H78V279.075C78 287.911 85.1634 295.075 94 295.075H282C290.837 295.075 298 287.911 298 279.075V171.94H246.687C237.85 171.94 230.687 179.104 230.687 187.94V188.776C230.687 197.613 223.523 204.776 214.687 204.776H161.313C152.477 204.776 145.313 197.613 145.313 188.776V187.94Z" fill="url(#paint6_linear_35228_45978)"/>
<rect x="94" y="257" width="59.1045" height="6.56716" rx="3.28358" fill="white"/>
<rect x="94" y="270.134" width="47.6119" height="6.56716" rx="3.28358" fill="white"/>
<path d="M282 252.991C282 259.403 279.502 265.435 274.971 269.968C270.439 274.501 264.409 277 258 277C251.591 277 245.561 274.501 241.029 269.968C236.498 265.435 234 259.403 234 252.991C234 246.58 236.498 240.548 241.029 236.015C245.716 231.327 251.849 229 258 229C264.151 229 270.284 231.344 274.971 236.015C279.502 240.565 282 246.58 282 252.991Z" fill="white"/>
<path d="M258.43 237C261.624 237 264.177 237.865 266.087 239.596C268.029 241.326 269 243.69 269 246.687C269 249.808 267.998 252.156 265.993 253.732C264.184 255.154 261.838 255.935 258.957 256.073C258.425 256.099 257.985 256.513 257.958 257.044L257.867 258.808C257.84 259.34 257.401 259.757 256.869 259.757H254.136C253.596 259.757 253.154 259.329 253.137 258.789L252.966 253.513C252.948 252.948 253.401 252.48 253.966 252.48H254.483C257.521 252.48 259.839 252.079 261.436 251.275C263.065 250.472 263.879 248.942 263.879 246.687C263.879 245.049 263.394 243.767 262.423 242.84C261.483 241.913 260.168 241.449 258.477 241.449C256.785 241.449 255.454 241.897 254.483 242.794C253.723 243.495 253.261 244.414 253.096 245.551C253.016 246.097 252.579 246.548 252.027 246.548H249C248.448 246.548 247.995 246.099 248.043 245.549C248.169 244.095 248.578 242.775 249.268 241.588C250.114 240.136 251.32 239.008 252.886 238.205C254.483 237.402 256.331 237 258.43 237ZM255.423 270C254.452 270 253.638 269.676 252.98 269.027C252.322 268.378 251.993 267.574 251.993 266.617C251.993 265.659 252.322 264.855 252.98 264.206C253.638 263.558 254.452 263.233 255.423 263.233C256.362 263.233 257.161 263.558 257.819 264.206C258.477 264.855 258.805 265.659 258.805 266.617C258.805 267.574 258.477 268.378 257.819 269.027C257.161 269.676 256.362 270 255.423 270Z" fill="url(#paint7_linear_35228_45978)"/>
<defs>
<linearGradient id="paint0_linear_35228_45978" x1="339.138" y1="320.198" x2="36.2115" y2="64.6769" gradientUnits="userSpaceOnUse">
<stop stop-color="#0281CE" stop-opacity="0.5"/>
<stop offset="1" stop-color="#C9EAFF" stop-opacity="0.5"/>
</linearGradient>
<linearGradient id="paint1_linear_35228_45978" x1="298" y1="128.433" x2="78" y2="128.433" gradientUnits="userSpaceOnUse">
<stop stop-color="#0C63AA"/>
<stop offset="1" stop-color="#003A79"/>
</linearGradient>
<linearGradient id="paint2_linear_35228_45978" x1="187.998" y1="71.221" x2="187.998" y2="99.7015" gradientUnits="userSpaceOnUse">
<stop stop-color="#B8C5E7"/>
<stop offset="1" stop-color="#7084B1"/>
</linearGradient>
<linearGradient id="paint3_linear_35228_45978" x1="187.997" y1="92.223" x2="187.997" y2="268.012" gradientUnits="userSpaceOnUse">
<stop stop-color="#B8C5E7"/>
<stop offset="0.2" stop-color="#7084B1"/>
</linearGradient>
<linearGradient id="paint4_linear_35228_45978" x1="187.997" y1="118.476" x2="187.997" y2="256.05" gradientUnits="userSpaceOnUse">
<stop stop-color="#B8C5E7"/>
<stop offset="0.2" stop-color="#7084B1"/>
</linearGradient>
<linearGradient id="paint5_linear_35228_45978" x1="187.996" y1="147.313" x2="187.996" y2="212.985" gradientUnits="userSpaceOnUse">
<stop stop-color="#B8C5E7"/>
<stop offset="1" stop-color="#7084B1"/>
</linearGradient>
<linearGradient id="paint6_linear_35228_45978" x1="213.5" y1="217.5" x2="106.5" y2="302.5" gradientUnits="userSpaceOnUse">
<stop stop-color="#0281CE"/>
<stop offset="1" stop-color="#0A66AE"/>
</linearGradient>
<linearGradient id="paint7_linear_35228_45978" x1="258.58" y1="311.214" x2="256.824" y2="215.75" gradientUnits="userSpaceOnUse">
<stop stop-color="#1A367C"/>
<stop offset="1" stop-color="#365BDC"/>
</linearGradient>
</defs>
</svg>
