<svg width="376" height="376" viewBox="0 0 376 376" fill="none" xmlns="http://www.w3.org/2000/svg">
<path d="M257.749 59H119.251C116.041 59 113.057 60.7181 111.453 63.5066L42.2034 183.493C40.5989 186.282 40.5989 189.718 42.2034 192.507L111.453 312.493C113.057 315.282 116.041 317 119.251 317H257.749C260.959 317 263.943 315.282 265.547 312.493L334.797 192.507C336.401 189.718 336.401 186.282 334.797 183.493L265.547 63.5066C263.943 60.7181 260.959 59 257.749 59Z" fill="url(#paint0_linear_35228_45615)"/>
<path d="M219.47 301.128H63.5866C51.2397 301.128 41.1771 291.355 40.6855 279.124V255.413H190.988V274.526C191.971 289.389 204.347 301.128 219.47 301.128Z" fill="url(#paint1_linear_35228_45615)"/>
<path d="M271.778 75.7322C258.65 75.7322 248.009 86.3731 248.009 99.5007V272.56C248.009 285.803 238.988 296.965 226.728 300.174C224.414 300.782 221.957 301.1 219.441 301.1C204.347 301.1 191.971 289.36 190.959 274.497V255.384H97.1572V102.421C97.1572 99.3561 97.6777 96.4357 98.6319 93.6887C101.581 85.1876 108.666 78.6526 117.514 76.484C119.538 75.9924 121.678 75.7322 123.875 75.7322H271.778Z" fill="url(#paint2_linear_35228_45615)"/>
<path d="M295.576 99.5296V129.139H248.01V99.5296C248.01 86.4019 258.651 75.761 271.778 75.761C284.935 75.7321 295.576 86.373 295.576 99.5296Z" fill="url(#paint3_linear_35228_45615)"/>
<path d="M184.569 137.583H157.302C155.046 137.583 153.225 135.761 153.225 133.506C153.225 131.25 155.046 129.428 157.302 129.428H184.569C186.824 129.428 188.646 131.25 188.646 133.506C188.646 135.761 186.824 137.583 184.569 137.583Z" fill="white"/>
<path d="M219.181 120.985H157.331C155.076 120.985 153.254 119.163 153.254 116.908C153.254 114.652 155.076 112.831 157.331 112.831H219.181C221.437 112.831 223.258 114.652 223.258 116.908C223.258 119.163 221.437 120.985 219.181 120.985Z" fill="white"/>
<path d="M184.569 183.153H157.302C155.046 183.153 153.225 181.332 153.225 179.076C153.225 176.821 155.046 174.999 157.302 174.999H184.569C186.824 174.999 188.646 176.821 188.646 179.076C188.646 181.332 186.824 183.153 184.569 183.153Z" fill="white"/>
<path d="M219.181 166.556H157.331C155.076 166.556 153.254 164.734 153.254 162.479C153.254 160.224 155.076 158.402 157.331 158.402H219.181C221.437 158.402 223.258 160.224 223.258 162.479C223.258 164.734 221.437 166.556 219.181 166.556Z" fill="white"/>
<path d="M184.569 228.695H157.302C155.046 228.695 153.225 226.874 153.225 224.618C153.225 222.363 155.046 220.541 157.302 220.541H184.569C186.824 220.541 188.646 222.363 188.646 224.618C188.646 226.874 186.824 228.695 184.569 228.695Z" fill="white"/>
<path d="M219.181 212.127H157.331C155.076 212.127 153.254 210.305 153.254 208.049C153.254 205.794 155.076 203.972 157.331 203.972H219.181C221.437 203.972 223.258 205.794 223.258 208.049C223.258 210.276 221.437 212.127 219.181 212.127Z" fill="white"/>
<path d="M141.794 127.34C142.876 120.672 138.348 114.39 131.68 113.307C125.012 112.225 118.729 116.753 117.647 123.421C116.565 130.089 121.093 136.372 127.761 137.454C134.429 138.536 140.712 134.008 141.794 127.34Z" fill="white"/>
<path d="M141.795 172.594C142.877 165.926 138.349 159.643 131.681 158.561C125.013 157.479 118.73 162.007 117.648 168.675C116.566 175.343 121.094 181.626 127.762 182.708C134.43 183.79 140.713 179.262 141.795 172.594Z" fill="white"/>
<path d="M141.796 217.847C142.878 211.179 138.35 204.897 131.682 203.814C125.014 202.732 118.731 207.26 117.649 213.928C116.567 220.596 121.095 226.879 127.763 227.961C134.431 229.044 140.714 224.515 141.796 217.847Z" fill="white"/>
<path d="M296.53 221.408C296.53 232.165 292.338 242.285 284.733 249.89C277.128 257.495 267.008 261.688 256.251 261.688C245.494 261.688 235.374 257.495 227.769 249.89C220.164 242.285 215.972 232.165 215.972 221.408C215.972 210.652 220.164 200.531 227.769 192.927C235.634 185.062 245.928 181.158 256.251 181.158C266.574 181.158 276.868 185.09 284.733 192.927C292.338 200.56 296.53 210.652 296.53 221.408Z" fill="white"/>
<path d="M268.627 199.924C271.577 202.613 273.051 206.286 273.051 210.941C273.051 215.799 271.519 219.442 268.454 221.871C265.794 223.982 262.41 225.196 258.275 225.485C257.119 225.572 256.194 226.497 256.136 227.654L256.078 229.042C256.02 230.256 255.008 231.211 253.794 231.211H251.076C249.832 231.211 248.82 230.228 248.791 228.984L248.589 222.276C248.56 220.975 249.601 219.905 250.873 219.905C255.529 219.905 259.085 219.298 261.572 218.025C264.03 216.782 265.273 214.411 265.273 210.883C265.273 208.339 264.55 206.343 263.075 204.898C261.601 203.452 259.577 202.729 257.003 202.729C254.401 202.729 252.377 203.423 250.873 204.811C249.774 205.823 249.08 207.153 248.791 208.772C248.589 209.871 247.635 210.652 246.536 210.652H243.413C242.025 210.652 240.926 209.408 241.129 208.02C241.418 206.199 241.996 204.493 242.864 202.96C244.165 200.705 246.015 198.97 248.444 197.698C250.873 196.454 253.678 195.818 256.888 195.818C261.745 195.905 265.678 197.235 268.627 199.924ZM248.502 245.64C247.49 244.627 246.998 243.384 246.998 241.909C246.998 240.435 247.49 239.162 248.502 238.179C249.514 237.167 250.757 236.676 252.232 236.676C253.678 236.676 254.892 237.167 255.904 238.179C256.916 239.191 257.408 240.435 257.408 241.909C257.408 243.384 256.916 244.656 255.904 245.64C254.892 246.652 253.678 247.143 252.232 247.143C250.757 247.143 249.514 246.652 248.502 245.64Z" fill="url(#paint4_linear_35228_45615)"/>
<path d="M333.774 288.406L310.844 265.476C309.167 263.77 306.854 263.076 304.656 263.336L297.861 256.541C306.16 246.739 310.699 234.421 310.699 221.437C310.699 206.893 305.032 193.245 294.767 182.951C273.543 161.727 239.018 161.727 217.794 182.951C207.5 193.245 201.861 206.893 201.861 221.437C201.861 235.982 207.529 249.659 217.794 259.924C228.406 270.536 242.343 275.828 256.28 275.828C268.772 275.828 281.292 271.548 291.384 263.018L298.179 269.813C297.919 272.011 298.613 274.324 300.319 276.001L323.249 298.931C326.169 301.852 330.882 301.852 333.803 298.931C335.249 297.485 336 295.577 336 293.668C336 291.76 335.249 289.852 333.774 288.406ZM284.733 249.89C277.128 257.495 267.008 261.688 256.251 261.688C245.495 261.688 235.374 257.495 227.77 249.89C220.165 242.286 215.972 232.165 215.972 221.409C215.972 210.652 220.165 200.532 227.77 192.927C235.635 185.062 245.929 181.158 256.251 181.158C266.574 181.158 276.868 185.091 284.733 192.927C292.338 200.532 296.531 210.652 296.531 221.409C296.531 232.165 292.338 242.286 284.733 249.89Z" fill="url(#paint5_linear_35228_45615)"/>
<path d="M215.967 349.934C218.158 349.934 219.934 348.158 219.934 345.967C219.934 343.776 218.158 342 215.967 342C213.776 342 212 343.776 212 345.967C212 348.158 213.776 349.934 215.967 349.934Z" fill="#008BC9"/>
<path d="M19.9671 249.767C22.1581 249.767 23.9342 247.991 23.9342 245.8C23.9342 243.609 22.1581 241.833 19.9671 241.833C17.7761 241.833 16 243.609 16 245.8C16 247.991 17.7761 249.767 19.9671 249.767Z" fill="#008BC9"/>
<path d="M62.054 339.384C64.245 339.384 66.0211 337.608 66.0211 335.417C66.0211 333.226 64.245 331.45 62.054 331.45C59.8631 331.45 58.0869 333.226 58.0869 335.417C58.0869 337.608 59.8631 339.384 62.054 339.384Z" fill="#008BC9"/>
<path d="M86.636 360C88.827 360 90.6032 358.224 90.6032 356.033C90.6032 353.842 88.827 352.066 86.636 352.066C84.4451 352.066 82.6689 353.842 82.6689 356.033C82.6689 358.224 84.4451 360 86.636 360Z" fill="#008BC9"/>
<path d="M62.0532 71.1169C65.3397 71.1169 68.0039 68.4527 68.0039 65.1662C68.0039 61.8798 65.3397 59.2156 62.0532 59.2156C58.7667 59.2156 56.1025 61.8798 56.1025 65.1662C56.1025 68.4527 58.7667 71.1169 62.0532 71.1169Z" fill="#008BC9"/>
<path d="M41.0482 38.4042C43.2391 38.4042 45.0153 36.628 45.0153 34.4371C45.0153 32.2461 43.2391 30.47 41.0482 30.47C38.8572 30.47 37.0811 32.2461 37.0811 34.4371C37.0811 36.628 38.8572 38.4042 41.0482 38.4042Z" fill="#008BC9"/>
<path d="M187.278 23.9342C189.469 23.9342 191.245 22.1581 191.245 19.9671C191.245 17.7761 189.469 16 187.278 16C185.087 16 183.311 17.7761 183.311 19.9671C183.311 22.1581 185.087 23.9342 187.278 23.9342Z" fill="#008BC9"/>
<path d="M351.165 268.269C352.978 268.269 354.449 266.799 354.449 264.985C354.449 263.171 352.978 261.7 351.165 261.7C349.351 261.7 347.88 263.171 347.88 264.985C347.88 266.799 349.351 268.269 351.165 268.269Z" fill="#008BC9"/>
<path d="M283.171 359.967C284.985 359.967 286.455 358.497 286.455 356.683C286.455 354.869 284.985 353.399 283.171 353.399C281.357 353.399 279.887 354.869 279.887 356.683C279.887 358.497 281.357 359.967 283.171 359.967Z" fill="#008BC9"/>
<path d="M41.4378 89.424C43.6288 89.424 45.4049 87.6478 45.4049 85.4568C45.4049 83.2659 43.6288 81.4897 41.4378 81.4897C39.2468 81.4897 37.4707 83.2659 37.4707 85.4568C37.4707 87.6478 39.2468 89.424 41.4378 89.424Z" fill="#008BC9"/>
<path d="M332.304 47.802C336.022 47.802 339.035 44.7884 339.035 41.0709C339.035 37.3534 336.022 34.3398 332.304 34.3398C328.587 34.3398 325.573 37.3534 325.573 41.0709C325.573 44.7884 328.587 47.802 332.304 47.802Z" fill="#008BC9"/>
<path d="M355.155 70.0112C357.831 70.0112 360 67.842 360 65.1661C360 62.4903 357.831 60.321 355.155 60.321C352.479 60.321 350.31 62.4903 350.31 65.1661C350.31 67.842 352.479 70.0112 355.155 70.0112Z" fill="#008BC9"/>
<path d="M332.304 93.9763C334.657 93.9763 336.564 92.0691 336.564 89.7165C336.564 87.3639 334.657 85.4568 332.304 85.4568C329.952 85.4568 328.044 87.3639 328.044 89.7165C328.044 92.0691 329.952 93.9763 332.304 93.9763Z" fill="#008BC9"/>
<path d="M334.971 324.686C338.114 324.686 340.661 322.139 340.661 318.996C340.661 315.853 338.114 313.305 334.971 313.305C331.828 313.305 329.28 315.853 329.28 318.996C329.28 322.139 331.828 324.686 334.971 324.686Z" fill="#008BC9"/>
<defs>
<linearGradient id="paint0_linear_35228_45615" x1="339.138" y1="320.198" x2="36.2115" y2="64.6769" gradientUnits="userSpaceOnUse">
<stop stop-color="#0281CE" stop-opacity="0.5"/>
<stop offset="1" stop-color="#C9EAFF" stop-opacity="0.5"/>
</linearGradient>
<linearGradient id="paint1_linear_35228_45615" x1="219.47" y1="278.271" x2="40.6855" y2="278.271" gradientUnits="userSpaceOnUse">
<stop stop-color="#0281CE"/>
<stop offset="1" stop-color="#0771C7"/>
</linearGradient>
<linearGradient id="paint2_linear_35228_45615" x1="184" y1="130" x2="175" y2="289.5" gradientUnits="userSpaceOnUse">
<stop stop-color="#0281CE"/>
<stop offset="1" stop-color="#0A64AE"/>
</linearGradient>
<linearGradient id="paint3_linear_35228_45615" x1="295.576" y1="102.45" x2="248.01" y2="102.45" gradientUnits="userSpaceOnUse">
<stop stop-color="#0281CE"/>
<stop offset="1" stop-color="#0D5B99"/>
</linearGradient>
<linearGradient id="paint4_linear_35228_45615" x1="273.051" y1="221.481" x2="241.104" y2="221.481" gradientUnits="userSpaceOnUse">
<stop stop-color="#0C63AA"/>
<stop offset="1" stop-color="#003A79"/>
</linearGradient>
<linearGradient id="paint5_linear_35228_45615" x1="336" y1="234.077" x2="201.861" y2="234.077" gradientUnits="userSpaceOnUse">
<stop stop-color="#0C63AA"/>
<stop offset="1" stop-color="#003A79"/>
</linearGradient>
</defs>
</svg>
